<svg width="1448" height="347" viewBox="0 0 1448 347" xmlns="http://www.w3.org/2000/svg"><title>Hero Image</title><g fill="none" fill-rule="evenodd"><path fill="#FFF" d="M70 159h248v187H70z"/><path d="M209.92 270.12c0 9.508-14.262 9.508-14.262 0 0-9.509 14.262-9.509 14.262 0" fill="#CCC" fill-rule="nonzero"/><path d="M160.193 322.954h126.008v-79.908H160.193v79.908zm62.273-3.074h-36.88l18.44-18.44 18.44 18.44zm-10.301-14.634l18.44-18.44 32.943 33.075h-36.88l-14.503-14.635zm-48.897-59.125h119.86v73.76H267.27l.312-.312-36.88-36.88-20.53 20.529-5.99-5.99-22.93 22.653h-17.985v-73.76zM162.498 200.02h89.128v3.072h-89.128zM162.498 221.533h66.077v3.073h-66.077zM162.498 210.776h110.641v3.073H162.498z" fill="#CCC" fill-rule="nonzero"/><path d="M69.529 158.529v187.475H318.47V158.529H69.53zm245.869 3.073v19.977H72.602v-19.977h242.796zm-242.796 23.05h56.857v158.279H72.602V184.652zm59.93 158.279V184.652h182.866v158.279H132.533z" fill="#CCC" fill-rule="nonzero"/><path d="M87.874 172.082c0 5.127-7.684 5.127-7.684 0 0-5.126 7.684-5.126 7.684 0M101.704 172.082c0 5.127-7.684 5.127-7.684 0 0-5.126 7.684-5.126 7.684 0M115.534 172.082c0 5.127-7.684 5.127-7.684 0 0-5.126 7.684-5.126 7.684 0M82.59 239.973h27.66v3.073H82.59zM82.59 253.803h38.418v3.073H82.59zM82.59 267.633h30.734v3.074H82.59zM82.59 281.463h23.05v3.074H82.59zM82.59 295.293h30.734v3.074H82.59zM93.347 224.234c4.97 0 9.46-2.99 11.357-7.587a12.284 12.284 0 0 0-2.665-13.398 12.293 12.293 0 1 0-8.692 20.985zm0-21.513a9.223 9.223 0 0 1 8.524 5.69c1.417 3.446.636 7.42-2.005 10.049a9.214 9.214 0 0 1-10.048 2.004 9.223 9.223 0 0 1-5.691-8.523c0-5.09 4.13-9.22 9.22-9.22z" fill="#CCC" fill-rule="nonzero"/><g><path fill="#FFF" d="M1131 160h248v187h-248z"/><path fill="#CCC" fill-rule="nonzero" d="M1188.689 223.024h131.098v3.05h-131.098zM1206.982 233.695h92.988v3.049h-92.988zM1214.604 212.354h76.22v3.048h-76.22zM1176.494 293.146h41.158v3.05h-41.158zM1184.116 302.293h25.914v3.048h-25.914z"/><path d="M1131.524 160.524V346.5h246.952V160.524h-246.952zm243.903 3.05v20.578h-240.854v-20.579h240.854zM1134.573 343.45v-156.25h240.854v156.25h-240.854z" fill="#CCC" fill-rule="nonzero"/><path d="M1149.723 173.97c0 5.085-7.622 5.085-7.622 0 0-5.086 7.622-5.086 7.622 0M1163.442 173.97c0 5.085-7.622 5.085-7.622 0 0-5.086 7.622-5.086 7.622 0M1177.162 173.97c0 5.085-7.622 5.085-7.622 0 0-5.086 7.622-5.086 7.622 0M1197.598 283.631c4.93 0 9.372-2.965 11.266-7.527a12.23 12.23 0 0 0-2.644-13.29 12.207 12.207 0 0 0-13.291-2.644 12.195 12.195 0 0 0-7.527 11.266 12.174 12.174 0 0 0 12.195 12.195zm0-21.341a9.145 9.145 0 0 1 8.443 5.645 9.153 9.153 0 0 1-1.977 9.968 9.14 9.14 0 0 1-9.968 1.989 9.15 9.15 0 0 1-5.645-8.456 9.141 9.141 0 0 1 9.146-9.146zM1232.896 293.146h41.159v3.05h-41.159zM1240.518 302.293h25.915v3.048h-25.915zM1241.805 271.436c0 4.93 2.965 9.384 7.527 11.266a12.186 12.186 0 0 0 13.29-2.644 12.225 12.225 0 0 0 2.644-13.29A12.213 12.213 0 0 0 1254 259.24c-6.74 0-12.195 5.466-12.195 12.195zm21.341 0a9.16 9.16 0 0 1-5.657 8.455 9.14 9.14 0 0 1-9.968-1.988A9.15 9.15 0 0 1 1254 262.29c5.05 0 9.146 4.096 9.146 9.146zM1289.299 293.146h41.158v3.05H1289.3zM1296.92 302.293h25.915v3.048h-25.914zM1310.402 283.631c4.93 0 9.373-2.965 11.267-7.527a12.23 12.23 0 0 0-2.644-13.29 12.207 12.207 0 0 0-13.291-2.644 12.195 12.195 0 0 0-7.527 11.266 12.174 12.174 0 0 0 12.195 12.195zm0-21.341a9.145 9.145 0 0 1 8.444 5.645 9.153 9.153 0 0 1-1.977 9.968 9.14 9.14 0 0 1-9.968 1.989 9.15 9.15 0 0 1-5.645-8.456 9.141 9.141 0 0 1 9.146-9.146z" fill="#CCC" fill-rule="nonzero"/></g><g><path fill="#FFF" d="M218 75h361v272H218z"/><path fill="#CCC" fill-rule="nonzero" d="M364.847 282.476h66.75v26.7h-66.75zM320.348 230.746h153.523v-26.699H320.348v26.7zm4.45-22.25h144.623v17.8H324.798v-17.8zM320.348 269.127h153.523v-26.7H320.348v26.7zm4.45-22.25h144.623v17.8H324.798v-17.8zM337.035 155.098h122.373v4.45H337.035zM359.285 170.673h75.649v4.45h-75.649z"/><path d="M218 75v272h361V75H218zm356.543 4.459v30.098H222.457V79.46h352.086zM222.457 342.541V114.016h352.086v228.525H222.457z" fill="#CCC" fill-rule="nonzero"/><path d="M244.7 94.468c0 7.417-11.125 7.417-11.125 0 0-7.416 11.125-7.416 11.125 0M264.724 94.468c0 7.417-11.125 7.417-11.125 0 0-7.416 11.125-7.416 11.125 0M284.749 94.468c0 7.417-11.125 7.417-11.125 0 0-7.416 11.125-7.416 11.125 0" fill="#CCC" fill-rule="nonzero"/></g><g><path fill="#FFF" d="M873 77h358v269H873z"/><path d="M873.536 77.536v269.186h356.928V77.536H873.536zm352.522 4.413v28.684H877.942V81.949h348.116zM877.942 192.271h55.082V298.18h-55.082V192.271zm0 150.038v-39.716h59.488V187.858h-59.488v-72.812h348.116v72.812h-59.488v114.735h59.488v39.716H877.942zm348.116-150.038V298.18h-55.082V192.271h55.082z" fill="#CCC" fill-rule="nonzero"/><path d="M899.838 96.997c0 7.36-11.016 7.36-11.016 0s11.016-7.36 11.016 0M919.668 96.997c0 7.36-11.017 7.36-11.017 0s11.017-7.36 11.017 0M939.497 96.997c0 7.36-11.016 7.36-11.016 0s11.016-7.36 11.016 0M1030.76 226.731c0 13.653-20.448 13.653-20.448 0 0-13.652 20.449-13.652 20.449 0M1072.794 318.21c0 3.482-5.198 3.482-5.198 0 0-3.465 5.198-3.465 5.198 0M1059.575 318.21c0 3.482-5.199 3.482-5.199 0 0-3.465 5.199-3.465 5.199 0M1048.162 318.21c0 5.895-8.813 5.895-8.813 0 0-5.878 8.813-5.878 8.813 0M1033.136 318.21c0 3.482-5.199 3.482-5.199 0 0-3.465 5.199-3.465 5.199 0" fill="#CCC" fill-rule="nonzero"/><path d="M961.666 302.593h180.668V187.858H961.666v114.735zm87.082-4.413H995.87l26.439-26.477 26.439 26.477zm-14.769-21.013l26.44-26.477 47.233 47.491h-52.879l-20.794-21.014zm-67.905-84.895h171.855v105.91h-24.942l.448-.449-52.879-52.954-29.658 29.132-8.589-8.602-32.653 32.873h-23.582v-105.91zM991.41 143.73h121.18v4.412H991.41zM1013.443 159.175h74.91v4.412h-74.91z" fill="#CCC" fill-rule="nonzero"/></g><g><path fill="#FFF" d="M495.56 1.11H954V347H495.56z"/><path d="M591.69 251.353c0 9.638-14.448 9.638-14.448 0 0-9.64 14.448-9.64 14.448 0" fill="#CCC" fill-rule="nonzero"/><path d="M548.346 305.293h101.692v-90.642H548.346v90.642zm51.42-5.665h-30.167l15.095-15.137 15.072 15.137zm-5.65-13.543l16.662-16.708 30.101 30.185h-33.103l-13.66-13.477zm-40.12-65.767h90.392v74.622l-33.456-33.549-20.612 20.669-5.65-5.665-23.038 23.236h-7.636v-79.313zM715.609 251.353c0 9.638-14.448 9.638-14.448 0 0-9.64 14.448-9.64 14.448 0" fill="#CCC" fill-rule="nonzero"/><path d="M673.377 305.293h101.69v-90.642h-101.69v90.642zm51.42-5.665h-30.168l15.095-15.137 15.072 15.137zm-5.65-13.543l16.661-16.708 30.101 30.185h-33.102l-13.66-13.477zm-40.121-65.767h90.392v74.622l-33.456-33.549-20.611 20.669-5.65-5.665-23.04 23.236h-7.635v-79.313zM840.084 251.353c0 9.638-14.448 9.638-14.448 0 0-9.64 14.448-9.64 14.448 0" fill="#CCC" fill-rule="nonzero"/><path d="M798.407 305.293h101.691v-90.642H798.407v90.642zm51.42-5.665h-30.168l15.095-15.137 15.072 15.137zm-5.65-13.543l16.661-16.708 30.102 30.185h-33.103l-13.66-13.477zm-40.12-65.767h90.392v74.622l-33.456-33.549-20.612 20.669-5.65-5.665-23.039 23.236h-7.636v-79.313zM646.703 90.643h155.594v5.56H646.703zM674.488 110.662h96.134v5.56h-96.134z" fill="#CCC" fill-rule="nonzero"/><path d="M495.556 0v345.888H954V0H495.556zM948.34 5.67v36.857H501.215V5.67H948.34zM745.272 161.603c-1.592-11.185-11.143-19.491-22.418-19.491-11.275 0-20.826 8.306-22.418 19.491h-199.22V48.197h447.125v113.406H745.272zm-5.66 2.149c0 6.888-4.134 13.09-10.48 15.726a16.937 16.937 0 0 1-18.504-3.7c-4.864-4.85-6.323-12.181-3.692-18.538a16.985 16.985 0 0 1 15.697-10.5 16.955 16.955 0 0 1 12.137 4.918 16.939 16.939 0 0 1 5.063 12.094h-.22zM501.215 340.217V167.273h199.333c1.968 10.787 11.342 18.605 22.286 18.605 10.921 0 20.295-7.818 22.263-18.605h203.244v172.944H501.215z" fill="#CCC" fill-rule="nonzero"/><path d="M528.897 25.024c0 9.639-14.448 9.639-14.448 0s14.448-9.639 14.448 0M554.459 25.024c0 9.639-14.448 9.639-14.448 0s14.448-9.639 14.448 0M579.465 25.024c0 9.639-14.448 9.639-14.448 0s14.448-9.639 14.448 0" fill="#CCC" fill-rule="nonzero"/></g><path d="M1444 343.5H4" stroke="#CCC" stroke-width="7" stroke-linecap="square"/></g></svg>