<svg viewBox="0 0 1440 346" xmlns="http://www.w3.org/2000/svg" xmlns:xlink="http://www.w3.org/1999/xlink"><defs><path id="path-1" d="M0 0h1440v346H0z"/><path id="path-3" d="M0 0h248v187H0z"/><path id="path-5" d="M0 0h248v187H0z"/><path id="path-7" d="M0 0h361v272H0z"/><path id="path-9" d="M0 0h358v269H0z"/><path id="path-11" d="M.56.11H459V346H.56z"/></defs><g id="hero-illustration"><mask id="mask-2" fill="#fff"><use xlink:href="#path-1"/></mask><g class="page" mask="url(#mask-2)"><g transform="translate(66 158)"><mask id="mask-4" fill="#fff"><use xlink:href="#path-3"/></mask><path class="background" fill="#FFF" mask="url(#mask-4)" d="M0 0h248v187H0z"/><path d="M90.193 163.954h126.008V84.046H90.193v79.908zm62.273-3.074h-36.88l18.44-18.44 18.44 18.44zm-10.301-14.634l18.44-18.44 32.943 33.075h-36.88l-14.503-14.635zM93.268 87.121h119.86v73.76H197.27l.312-.312-36.88-36.88-20.53 20.529-5.99-5.99-22.93 22.653H93.267v-73.76h.001zm-.77-46.101h89.128v3.072H92.498V41.02zm0 21.513h66.077v3.073H92.498v-3.073zm0-10.757h110.641v3.073H92.498v-3.073z" id="Shape" fill="#CCC" mask="url(#mask-4)"/><path d="M-.471-.471v187.475H248.47V-.471H-.471zm245.869 3.073v19.977H2.602V2.602h242.796zM2.602 25.652h56.857v158.279H2.602V25.652zm59.93 158.279V25.652h182.866v158.279H62.532z" class="frame" fill="#CCC" mask="url(#mask-4)"/><path d="M17.874 13.082c0 5.127-7.684 5.127-7.684 0 0-5.126 7.684-5.126 7.684 0zm13.83 0c0 5.127-7.684 5.127-7.684 0 0-5.126 7.684-5.126 7.684 0zm13.83 0c0 5.127-7.684 5.127-7.684 0 0-5.126 7.684-5.126 7.684 0zM12.59 80.973h27.66v3.073H12.59v-3.073zm0 13.83h38.418v3.073H12.59v-3.073zm0 13.83h30.734v3.074H12.59v-3.074zm0 13.83h23.05v3.074H12.59v-3.074zm0 13.83h30.734v3.074H12.59v-3.074zm10.757-71.059c4.97 0 9.46-2.99 11.357-7.587a12.284 12.284 0 0 0-2.665-13.398 12.293 12.293 0 1 0-8.692 20.985zm0-21.513a9.223 9.223 0 0 1 8.524 5.69c1.417 3.446.636 7.42-2.005 10.049a9.214 9.214 0 0 1-10.048 2.004 9.223 9.223 0 0 1-5.691-8.523c0-5.09 4.13-9.22 9.22-9.22zM139.92 111.12c0 9.508-14.262 9.508-14.262 0 0-9.509 14.262-9.509 14.262 0" fill="#CCC" mask="url(#mask-4)"/></g></g><g class="page" mask="url(#mask-2)"><g transform="translate(1127 159)"><mask id="mask-6" fill="#fff"><use xlink:href="#path-5"/></mask><path class="background" fill="#FFF" mask="url(#mask-6)" d="M0 0h248v187H0z"/><path d="M57.689 63.024h131.098v3.05H57.689v-3.05zm18.293 10.671h92.988v3.049H75.982v-3.049zm7.622-21.341h76.22v3.048h-76.22v-3.048zm-38.11 80.792h41.158v3.05H45.494v-3.05zm7.622 9.147H79.03v3.048H53.116v-3.048z" fill="#CCC" mask="url(#mask-6)"/><path d="M.524.524V186.5h246.952V.524H.524zm243.903 3.05v20.578H3.573V3.573h240.854v.001zM3.573 183.45V27.2h240.854v156.25H3.573z" class="frame" fill="#CCC" mask="url(#mask-6)"/><path d="M18.723 13.97c0 5.085-7.622 5.085-7.622 0 0-5.086 7.622-5.086 7.622 0zm13.719 0c0 5.085-7.622 5.085-7.622 0 0-5.086 7.622-5.086 7.622 0zm13.72 0c0 5.085-7.622 5.085-7.622 0 0-5.086 7.622-5.086 7.622 0zm20.436 109.661c4.93 0 9.372-2.965 11.266-7.527a12.23 12.23 0 0 0-2.644-13.29 12.207 12.207 0 0 0-13.291-2.644 12.195 12.195 0 0 0-7.527 11.266 12.174 12.174 0 0 0 12.195 12.195h.001zm0-21.341a9.145 9.145 0 0 1 8.443 5.645 9.153 9.153 0 0 1-1.977 9.968 9.14 9.14 0 0 1-15.613-6.467 9.141 9.141 0 0 1 9.146-9.146h.001zm35.298 30.856h41.159v3.05h-41.159v-3.05zm7.622 9.147h25.915v3.048h-25.915v-3.048zm1.287-30.857c0 4.93 2.965 9.384 7.527 11.266a12.186 12.186 0 0 0 13.29-2.644 12.225 12.225 0 0 0 2.644-13.29A12.213 12.213 0 0 0 123 99.24c-6.74 0-12.195 5.466-12.195 12.195v.001zm21.341 0a9.16 9.16 0 0 1-5.657 8.455 9.14 9.14 0 0 1-9.968-1.988 9.15 9.15 0 1 1 15.625-6.467zm26.153 21.71h41.158v3.05H158.3l-.001-3.05zm7.621 9.147h25.915v3.048h-25.914l-.001-3.048zm13.482-18.662c4.93 0 9.373-2.965 11.267-7.527a12.23 12.23 0 0 0-2.644-13.29 12.207 12.207 0 0 0-13.291-2.644 12.195 12.195 0 0 0-7.527 11.266 12.174 12.174 0 0 0 12.195 12.195zm0-21.341a9.145 9.145 0 0 1 8.444 5.645 9.153 9.153 0 0 1-1.977 9.968 9.14 9.14 0 0 1-15.613-6.467 9.141 9.141 0 0 1 9.146-9.146z" fill="#CCC" mask="url(#mask-6)"/></g></g><g class="page" mask="url(#mask-2)"><g transform="translate(214 74)"><mask id="mask-8" fill="#fff"><use xlink:href="#path-7"/></mask><path class="background" fill="#FFF" mask="url(#mask-8)" d="M0 0h361v272H0z"/><path d="M146.847 207.476h66.75v26.7h-66.75v-26.7zm-44.499-51.73h153.523v-26.699H102.348v26.7-.001zm4.45-22.25h144.623v17.8H106.798v-17.8zm-4.45 60.631h153.523v-26.7H102.348v26.7zm4.45-22.25h144.623v17.8H106.798v-17.8zm12.237-91.779h122.373v4.45H119.035v-4.45zm22.25 15.575h75.649v4.45h-75.649v-4.45z" fill="#CCC" mask="url(#mask-8)"/><path d="M0 0v272h361V0H0zm356.543 4.459v30.098H4.457V4.46h352.086v-.001zM4.457 267.541V39.016h352.086v228.525H4.457z" class="frame" fill="#CCC" mask="url(#mask-8)"/><path d="M26.7 19.468c0 7.417-11.125 7.417-11.125 0 0-7.416 11.125-7.416 11.125 0m20.024 0c0 7.417-11.125 7.417-11.125 0 0-7.416 11.125-7.416 11.125 0m20.025 0c0 7.417-11.125 7.417-11.125 0 0-7.416 11.125-7.416 11.125 0" fill="#CCC" mask="url(#mask-8)"/></g></g><g class="page" mask="url(#mask-2)"><g transform="translate(869 76)"><mask id="mask-10" fill="#fff"><use xlink:href="#path-9"/></mask><path class="background" fill="#FFF" mask="url(#mask-10)" d="M0 0h358v269H0z"/><path d="M.536.536v269.186h356.928V.536H.536zm352.522 4.413v28.684H4.942V4.949h348.116zM4.942 115.271h55.082V221.18H4.942V115.271zm0 150.038v-39.716H64.43V110.858H4.942V38.046h348.116v72.812H293.57v114.735h59.488v39.716H4.942zm348.116-150.038V221.18h-55.082V115.271h55.082z" class="frame" fill="#CCC" mask="url(#mask-10)"/><path d="M26.838 19.997c0 7.36-11.016 7.36-11.016 0s11.016-7.36 11.016 0m19.83 0c0 7.36-11.017 7.36-11.017 0s11.017-7.36 11.017 0m19.829 0c0 7.36-11.016 7.36-11.016 0s11.016-7.36 11.016 0m91.263 129.734c0 13.653-20.448 13.653-20.448 0 0-13.652 20.449-13.652 20.449 0m42.033 91.479c0 3.482-5.198 3.482-5.198 0 0-3.465 5.198-3.465 5.198 0m-13.219 0c0 3.482-5.199 3.482-5.199 0 0-3.465 5.199-3.465 5.199 0m-11.413 0c0 5.895-8.813 5.895-8.813 0 0-5.878 8.813-5.878 8.813 0m-15.026 0c0 3.482-5.199 3.482-5.199 0 0-3.465 5.199-3.465 5.199 0" fill="#CCC" mask="url(#mask-10)"/><path d="M88.666 225.593h180.668V110.858H88.666v114.735zm87.082-4.413H122.87l26.439-26.477 26.439 26.477zm-14.769-21.013l26.44-26.477 47.233 47.491h-52.879l-20.794-21.014zm-67.905-84.895h171.855v105.91h-24.942l.448-.449-52.879-52.954-29.658 29.132-8.589-8.602-32.653 32.873H93.074v-105.91zM118.41 66.73h121.18v4.412H118.41V66.73zm22.033 15.445h74.91v4.412h-74.91v-4.412z" fill="#CCC" mask="url(#mask-10)"/></g></g><g class="page" mask="url(#mask-2)"><g transform="translate(491)"><mask id="mask-12" fill="#fff"><use xlink:href="#path-11"/></mask><path class="background" fill="#FFF" mask="url(#mask-12)" d="M.56.11H459V346H.56z"/><path d="M96.69 250.353c0 9.638-14.448 9.638-14.448 0 0-9.64 14.448-9.64 14.448 0" fill="#CCC" mask="url(#mask-12)"/><path d="M53.346 304.293h101.692v-90.642H53.346v90.642zm51.42-5.665H74.599l15.095-15.137 15.072 15.137zm-5.65-13.543l16.662-16.708 30.101 30.185h-33.103l-13.66-13.477zm-40.12-65.767h90.392v74.622l-33.456-33.549L95.32 281.06l-5.65-5.665-23.038 23.236h-7.636v-79.313zm161.613 31.035c0 9.638-14.448 9.638-14.448 0 0-9.64 14.448-9.64 14.448 0z" fill="#CCC" mask="url(#mask-12)"/><path d="M178.377 304.293h101.69v-90.642h-101.69v90.642zm51.42-5.665h-30.168l15.095-15.137 15.072 15.137h.001zm-5.65-13.543l16.661-16.708 30.101 30.185h-33.102l-13.66-13.477zm-40.121-65.767h90.392v74.622l-33.456-33.549-20.611 20.669-5.65-5.665-23.04 23.236h-7.635v-79.313zm161.058 31.035c0 9.638-14.448 9.638-14.448 0 0-9.64 14.448-9.64 14.448 0z" fill="#CCC" mask="url(#mask-12)"/><path d="M303.407 304.293h101.691v-90.642H303.407v90.642zm51.42-5.665h-30.168l15.095-15.137 15.072 15.137h.001zm-5.65-13.543l16.661-16.708 30.102 30.185h-33.103l-13.66-13.477zm-40.12-65.767h90.392v74.622l-33.456-33.549-20.612 20.669-5.65-5.665-23.039 23.236h-7.636v-79.313h.001zM151.703 89.643h155.594v5.56H151.703v-5.56zm27.785 20.019h96.134v5.56h-96.134v-5.56z" fill="#CCC" mask="url(#mask-12)"/><path d="M.556-1v345.888H459V-1H.556zM453.34 4.67v36.857H6.215V4.67H453.34zM250.272 160.603c-1.592-11.185-11.143-19.491-22.418-19.491-11.275 0-20.826 8.306-22.418 19.491H6.216V47.197h447.125v113.406H250.272zm-5.66 2.149c0 6.888-4.134 13.09-10.48 15.726a16.937 16.937 0 0 1-18.504-3.7c-4.864-4.85-6.323-12.181-3.692-18.538a16.985 16.985 0 0 1 15.697-10.5 16.955 16.955 0 0 1 12.137 4.918 16.939 16.939 0 0 1 5.063 12.094h-.221zM6.215 339.217V166.273h199.333c1.968 10.787 11.342 18.605 22.286 18.605 10.921 0 20.295-7.818 22.263-18.605h203.244v172.944H6.215z" class="frame" fill="#CCC" mask="url(#mask-12)"/><path d="M33.897 24.024c0 9.639-14.448 9.639-14.448 0s14.448-9.639 14.448 0m25.562 0c0 9.639-14.448 9.639-14.448 0s14.448-9.639 14.448 0m25.006 0c0 9.639-14.448 9.639-14.448 0s14.448-9.639 14.448 0" fill="#CCC" mask="url(#mask-12)"/></g></g><path d="M1440 342.5H0" id="line" stroke="#CCC" stroke-width="7" stroke-linecap="square"/></g><style>#line{transform:scaleX(0);transform-origin:50% 100%;animation:grow 1s forwards}.page path{stroke-dasharray:1000;stroke-dashoffset:1000;fill:none;stroke:#ccc;stroke-width:4;animation:draw 3s 2s forwards,fill 1s 3s forwards;stroke-linecap:round;stroke-linejoin:round}.page .frame{fill:#ccc;stroke:none}.page .background{fill:#fff;stroke:none}.page .background,.page .frame{transform:scaleY(0);transform-origin:50% 100%;animation:grow 1s 1s forwards}@keyframes grow{to{transform:scale(1)}}@keyframes draw{to{stroke-dashoffset:0}}@keyframes fill{0%{fill:#fff}to{fill:#ccc;stroke-width:0}}</style></svg>