<svg xmlns="http://www.w3.org/2000/svg"><symbol id="better-logo" viewBox="0 0 211.605 42.703"><path d="M28.371 42.7c-5.833-.145-11.593-.721-17.426-.792H2.952C.936 41.908 0 40.899 0 38.667c0-4.249 3.888-3.096 4.393-6.048.216-1.08.144-2.376.144-3.528.144-2.736.216-5.401.216-8.137 0-1.584-.216-10.225-.576-11.161-.433-1.152-1.441-1.872-2.377-2.52C.648 6.48.288 5.329.288 4.104c0-2.16 1.728-3.24 3.744-3.24h7.849C17.209.864 22.538 0 27.938 0c5.833 0 12.529 4.464 12.529 10.801 0 4.465-1.44 6.769-5.184 9.145 4.32 2.088 7.488 5.184 7.488 10.225 0 7.344-6.769 12.673-13.753 12.529h-.647zM25.49 12.457c0-2.664-1.512-5.256-4.464-5.256-.72 0-1.296.36-1.44 1.08-.36 2.233-.504 4.681-.504 6.913 0 1.584 1.08 2.16 2.592 2.16 3.24-.001 3.816-2.088 3.816-4.897zm.72 17.065c0-3.96-1.512-6.12-5.761-6.12-1.44 0-1.08 2.016-1.08 2.952 0 2.16.072 5.041.864 6.984.36.792 1.224.72 1.944.72 2.377.001 4.033-2.303 4.033-4.536zM59.76 28.659c-.648 0-.864.432-.864 1.008 0 2.736 3.24 4.393 5.617 4.393 4.608 0 7.201-3.096 8.425-3.096 2.232 0 3.528 1.944 3.528 4.032v.648c-.288.864-1.008 1.8-1.656 2.448-2.952 3.025-8.065 4.609-12.241 4.609-9.217 0-18.217-6.337-18.217-16.13 0-9.361 7.273-15.697 16.418-15.697 6.984 0 15.553 4.608 15.553 12.457 0 1.944.072 5.112-2.521 5.329-1.656.216-3.456.216-5.184.216h-2.592a84.91 84.91 0 0 1-6.049-.216h-.217zm2.089-11.594c-2.448 0-3.168 2.232-3.168 4.32 0 1.512 2.88 1.368 3.888 1.368.72 0 2.665-.072 2.665-1.152-.001-2.087-1.009-4.536-3.385-4.536zM81.431 21.026c0-2.592-3.097-1.008-3.097-3.456 0-1.728-.36-4.896 1.44-5.761 2.16-1.152 3.888-2.448 5.832-3.961 1.944-1.512 5.041-5.04 7.633-5.04 1.367 0 2.664 1.152 2.664 2.592 0 1.656-.217 3.313-.217 4.969 0 .648.504 1.368 1.225 1.368 1.224 0 2.448-.144 3.6-.144 1.944 0 1.801 2.52 1.801 3.816 0 1.441-.216 4.537-2.305 4.537-1.368 0-2.736-.36-4.104-.36-.576 0-1.009.36-1.009.936 0 1.872.072 3.744.143 5.544.072 1.872 0 3.744.217 5.616 0 .72.216 2.088 1.152 2.088 1.224 0 2.304-.576 3.528-.576 1.727 0 2.592 1.729 2.592 3.24 0 4.825-7.704 6.265-11.377 6.265-4.681 0-9.721-3.529-9.721-8.497V21.026zM107.134 21.026c0-2.592-3.096-1.008-3.096-3.456 0-1.728-.36-4.896 1.439-5.761 2.16-1.152 3.889-2.448 5.833-3.961 1.944-1.512 5.04-5.04 7.633-5.04 1.368 0 2.664 1.152 2.664 2.592 0 1.656-.216 3.313-.216 4.969 0 .648.504 1.368 1.224 1.368 1.225 0 2.448-.144 3.601-.144 1.944 0 1.8 2.52 1.8 3.816 0 1.441-.216 4.537-2.304 4.537-1.368 0-2.736-.36-4.104-.36-.576 0-1.008.36-1.008.936 0 1.872.071 3.744.144 5.544.072 1.872 0 3.744.216 5.616 0 .72.217 2.088 1.152 2.088 1.225 0 2.305-.576 3.528-.576 1.729 0 2.593 1.729 2.593 3.24 0 4.825-7.705 6.265-11.378 6.265-4.68 0-9.721-3.529-9.721-8.497V21.026zM144.719 28.659c-.647 0-.863.432-.863 1.008 0 2.736 3.24 4.393 5.616 4.393 4.608 0 7.2-3.096 8.425-3.096 2.232 0 3.528 1.944 3.528 4.032v.648c-.288.864-1.008 1.8-1.656 2.448-2.952 3.025-8.064 4.609-12.241 4.609-9.217 0-18.218-6.337-18.218-16.13 0-9.361 7.273-15.697 16.418-15.697 6.984 0 15.553 4.608 15.553 12.457 0 1.944.072 5.112-2.52 5.329-1.656.216-3.457.216-5.185.216h-2.593c-2.016 0-4.032-.072-6.048-.216h-.216zm2.089-11.594c-2.448 0-3.169 2.232-3.169 4.32 0 1.512 2.881 1.368 3.889 1.368.72 0 2.664-.072 2.664-1.152-.001-2.087-1.008-4.536-3.384-4.536zM180.574 31.755c-.144 3.384 5.4 1.368 5.4 5.616 0 3.745-2.088 4.537-5.473 4.537-2.592 0-5.04-.216-7.704-.216-1.801 0-3.312.144-5.112.144-2.736 0-4.465-1.152-4.465-3.889 0-3.744 3.24-2.52 3.385-5.328.071-1.224.071-2.521.071-3.745V25.13c0-1.728 0-3.745-.504-5.4-.504-1.944-2.736-.36-2.736-4.033 0-1.872.433-4.104 2.809-4.104h2.088c3.168.072 6.265-.792 9.433-.792 3.528 0 1.729 4.465 2.881 4.465.576 0 1.008-.36 1.368-.792 1.728-1.872 4.824-3.672 7.416-3.672 4.105 0 4.969 5.761 4.969 8.137 0 3.313 0 8.281-4.393 8.281-4.824 0-4.968-4.248-7.2-4.248-1.368 0-1.944 1.872-2.017 3.024l-.216 5.759zM203.9 42.703c-3.96 0-7.704-2.881-7.704-7.057 0-4.104 3.744-7.057 7.704-7.057 3.961 0 7.705 2.953 7.705 7.057 0 4.176-3.744 7.057-7.705 7.057z"/></symbol><symbol id="boilerplate-arrow" viewBox="0 0 100 100"><path d="M66 22.238a6.005 6.005 0 0 0-8.488 0L34 45.761a6.002 6.002 0 0 0 0 8.488l23.52 23.512a5.998 5.998 0 0 0 8.449-.043A5.994 5.994 0 0 0 66 69.27L46.73 50 66 30.73a6.005 6.005 0 0 0 0-8.492z"/></symbol><symbol id="download" viewBox="0 0 55 48"><path d="M8.055 1.023a3.506 3.506 0 0 1 4.95 0 3.503 3.503 0 0 1 0 4.953C5 13.98 5 26.96 13.004 34.964c8.007 8.008 20.983 8.008 28.991 0C50 26.96 50 13.98 41.996 5.976a3.503 3.503 0 0 1 0-4.953 3.506 3.506 0 0 1 4.95 0c10.737 10.742 10.737 28.152 0 38.891-10.739 10.742-28.153 10.742-38.892 0-10.738-10.738-10.738-28.148 0-38.891h.001zm17.402 28.801L15.43 19.59c-2.82-2.828 1.41-7.07 4.23-4.242l3.434 3.453c.781.789 1.414.527 1.414-.582V4.465A3 3 0 0 1 27.5 1.469a2.996 2.996 0 0 1 2.993 2.996v13.754c0 1.101.632 1.371 1.414.582l3.433-3.453c2.82-2.828 7.051 1.414 4.23 4.242L29.65 29.813a2.908 2.908 0 0 1-4.192.012v-.001z"/></symbol><symbol id="facebook" viewBox="0 0 24 24"><path d="M9 8H6v4h3v12h5V12h3.642L18 8h-4V6.333C14 5.378 14.192 5 15.115 5H18V0h-3.808C10.596 0 9 1.583 9 4.615V8z"/></symbol><symbol id="github" viewBox="0 0 24 24"><title>GitHub icon</title><path d="M12 .297c-6.63 0-12 5.373-12 12 0 5.303 3.438 9.8 8.205 11.385.6.113.82-.258.82-.577 0-.285-.01-1.04-.015-2.04-3.338.724-4.042-1.61-4.042-1.61C4.422 18.07 3.633 17.7 3.633 17.7c-1.087-.744.084-.729.084-.729 1.205.084 1.838 1.236 1.838 1.236 1.07 1.835 2.809 1.305 3.495.998.108-.776.417-1.305.76-1.605-2.665-.3-5.466-1.332-5.466-5.93 0-1.31.465-2.38 1.235-3.22-.135-.303-.54-1.523.105-3.176 0 0 1.005-.322 3.3 1.23.96-.267 1.98-.399 3-.405 1.02.006 2.04.138 3 .405 2.28-1.552 3.285-1.23 3.285-1.23.645 1.653.24 2.873.12 3.176.765.84 1.23 1.91 1.23 3.22 0 4.61-2.805 5.625-5.475 5.92.42.36.81 1.096.81 2.22 0 1.606-.015 2.896-.015 3.286 0 .315.21.69.825.57C20.565 22.092 24 17.592 24 12.297c0-6.627-5.373-12-12-12"/></symbol><symbol id="googleplus" viewBox="0 0 24 24"><path d="M7 11v2.4h3.97c-.16 1.029-1.2 3.02-3.97 3.02-2.39 0-4.34-1.979-4.34-4.42 0-2.44 1.95-4.42 4.34-4.42 1.36 0 2.27.58 2.79 1.08l1.9-1.83C10.47 5.69 8.89 5 7 5c-3.87 0-7 3.13-7 7s3.13 7 7 7c4.04 0 6.721-2.84 6.721-6.84 0-.46-.051-.81-.111-1.16H7zm0 0l17 2h-3v3h-2v-3h-3v-2h3V8h2v3h3v2z"/></symbol><symbol id="instagram" viewBox="0 0 24 24"><path d="M12 2.163c3.204 0 3.584.012 4.85.07 3.252.148 4.771 1.691 4.919 4.919.058 1.265.069 1.645.069 4.849 0 3.205-.012 3.584-.069 4.849-.149 3.225-1.664 4.771-4.919 4.919-1.266.058-1.644.07-4.85.07-3.204 0-3.584-.012-4.849-.07-3.26-.149-4.771-1.699-4.919-4.92-.058-1.265-.07-1.644-.07-4.849 0-3.204.013-3.583.07-4.849.149-3.227 1.664-4.771 4.919-4.919 1.266-.057 1.645-.069 4.849-.069zM12 0C8.741 0 8.333.014 7.053.072 2.695.272.273 2.69.073 7.052.014 8.333 0 8.741 0 12c0 3.259.014 3.668.072 4.948.2 4.358 2.618 6.78 6.98 6.98C8.333 23.986 8.741 24 12 24c3.259 0 3.668-.014 4.948-.072 4.354-.2 6.782-2.618 6.979-6.98.059-1.28.073-1.689.073-4.948 0-3.259-.014-3.667-.072-4.947-.196-4.354-2.617-6.78-6.979-6.98C15.668.014 15.259 0 12 0zm0 5.838a6.162 6.162 0 1 0 0 12.324 6.162 6.162 0 0 0 0-12.324zM12 16a4 4 0 1 1 0-8 4 4 0 0 1 0 8zm6.406-11.845a1.44 1.44 0 1 0 0 2.881 1.44 1.44 0 0 0 0-2.881z"/></symbol><symbol id="linkedin" viewBox="0 0 24 24"><path d="M4.98 3.5C4.98 4.881 3.87 6 2.5 6S.02 4.881.02 3.5C.02 2.12 1.13 1 2.5 1s2.48 1.12 2.48 2.5zM5 8H0v16h5V8zm7.982 0H8.014v16h4.969v-8.399c0-4.67 6.029-5.052 6.029 0V24H24V13.869c0-7.88-8.922-7.593-11.018-3.714V8z"/></symbol><symbol id="pintrest" viewBox="0 0 24 24"><path d="M12 0C5.373 0 0 5.372 0 12c0 5.084 3.163 9.426 7.627 11.174-.105-.949-.2-2.405.042-3.441.218-.937 1.407-5.965 1.407-5.965s-.359-.719-.359-1.782c0-1.668.967-2.914 2.171-2.914 1.023 0 1.518.769 1.518 1.69 0 1.029-.655 2.568-.994 3.995-.283 1.194.599 2.169 1.777 2.169 2.133 0 3.772-2.249 3.772-5.495 0-2.873-2.064-4.882-5.012-4.882-3.414 0-5.418 2.561-5.418 5.207 0 1.031.397 2.138.893 2.738a.36.36 0 0 1 .083.345l-.333 1.36c-.053.22-.174.267-.402.161-1.499-.698-2.436-2.889-2.436-4.649 0-3.785 2.75-7.262 7.929-7.262 4.163 0 7.398 2.967 7.398 6.931 0 4.136-2.607 7.464-6.227 7.464-1.216 0-2.359-.631-2.75-1.378l-.748 2.853c-.271 1.043-1.002 2.35-1.492 3.146C9.57 23.812 10.763 24 12 24c6.627 0 12-5.373 12-12 0-6.628-5.373-12-12-12z"/></symbol><symbol id="rss" viewBox="0 0 24 24"><path d="M6.503 20.752A3.25 3.25 0 0 1 3.252 24 3.25 3.25 0 0 1 0 20.752a3.25 3.25 0 0 1 3.252-3.248 3.25 3.25 0 0 1 3.251 3.248zM0 8.18v4.811c6.05.062 10.96 4.966 11.022 11.009h4.817C15.777 15.29 8.721 8.242 0 8.18zm0-3.368C10.58 4.858 19.152 13.406 19.183 24H24C23.97 10.769 13.245.046 0 0v4.812z"/></symbol><symbol id="soundcloud" viewBox="0 0 24 24"><path d="M7 17.939H6V9.871a4.099 4.099 0 0 1 1-.566v8.634zm3 0h1V8.715a5.576 5.576 0 0 0-.621.857L10 9.388v8.551zm-2 0h1V9.091c-.508-.079-.623-.05-1-.01v8.858zm-4 0h1v-7.02a4.69 4.69 0 0 0-.692 1.535L4 12.272v5.667zm-3-5.25c-.606.547-1 1.354-1 2.268 0 .914.394 1.721 1 2.268v-4.536zm18.879-.671c-.204-2.837-2.404-5.079-5.117-5.079A4.846 4.846 0 0 0 12 7.816v10.123h9.089c1.607 0 2.911-1.393 2.911-3.106 0-2.233-2.168-3.772-4.121-2.815zM3 11.991c-.302-.024-.526-.03-1 .122v5.689c.446.143.636.138 1 .138v-5.949z"/></symbol><symbol id="twitter" viewBox="0 0 24 24"><path d="M24 4.557a9.83 9.83 0 0 1-2.828.775 4.932 4.932 0 0 0 2.165-2.724 9.864 9.864 0 0 1-3.127 1.195 4.916 4.916 0 0 0-3.594-1.555c-3.179 0-5.515 2.966-4.797 6.045A13.978 13.978 0 0 1 1.671 3.149a4.93 4.93 0 0 0 1.523 6.574 4.903 4.903 0 0 1-2.229-.616c-.054 2.281 1.581 4.415 3.949 4.89a4.935 4.935 0 0 1-2.224.084 4.928 4.928 0 0 0 4.6 3.419A9.9 9.9 0 0 1 0 19.54a13.94 13.94 0 0 0 7.548 2.212c9.142 0 14.307-7.721 13.995-14.646A10.025 10.025 0 0 0 24 4.557z"/></symbol><symbol id="vimeo" viewBox="0 0 24 24"><path d="M22.875 10.063c-2.442 5.217-8.337 12.319-12.063 12.319-3.672 0-4.203-7.831-6.208-13.043-.987-2.565-1.624-1.976-3.474-.681L.002 7.203C2.7 4.831 5.4 2.076 7.059 1.923c1.868-.179 3.018 1.098 3.448 3.832.568 3.593 1.362 9.17 2.748 9.17 1.08 0 3.741-4.424 3.878-6.006.243-2.316-1.703-2.386-3.392-1.663 2.673-8.754 13.793-7.142 9.134 2.807z"/></symbol></svg>