<svg width="1651" height="1075" viewBox="0 0 1651 1075" xmlns="http://www.w3.org/2000/svg"><title>terminal</title><path d="M572 522L106 988c-6.667 6.667-14.333 10-23 10s-16.333-3.333-23-10l-50-50c-6.667-6.667-10-14.333-10-23s3.333-16.333 10-23l393-393L10 106C3.333 99.333 0 91.667 0 83s3.333-16.333 10-23l50-50C66.667 3.333 74.333 0 83 0s16.333 3.333 23 10l466 466c6.667 6.667 10 14.333 10 23s-3.333 16.333-10 23zm1079 457v64c0 9.333-3 17-9 23s-13.667 9-23 9H659c-9.333 0-17-3-23-9s-9-13.667-9-23v-64c0-9.333 3-17 9-23s13.667-9 23-9h960c9.333 0 17 3 23 9s9 13.667 9 23z" fill-rule="nonzero" fill="#EDEDED"/></svg>