<?xml version="1.0" encoding="UTF-8"?>
<svg width="1448px" height="347px" viewBox="0 0 1448 347" version="1.1" xmlns="http://www.w3.org/2000/svg" xmlns:xlink="http://www.w3.org/1999/xlink">
    <!-- Generator: Sketch 45.1 (43504) - http://www.bohemiancoding.com/sketch -->
    <title>Hero Image</title>
    <desc>Created with Sketch.</desc>
    <defs></defs>
    <g id="Page-1" stroke="none" stroke-width="1" fill="none" fill-rule="evenodd">
        <g id="Desktop-HD" transform="translate(-236.000000, -411.000000)">
            <g id="Group-2" transform="translate(240.000000, 173.000000)">
                <g id="Hero-Image" transform="translate(0.000000, 238.000000)">
                    <g id="np_wireframe-site_711411_000000" transform="translate(65.000000, 158.000000)">
                        <rect id="Rectangle-3" fill="#FFFFFF" x="1" y="1" width="248" height="187"></rect>
                        <path d="M140.920043,112.119517 C140.920043,121.627901 126.657774,121.627901 126.657774,112.119517 C126.657774,102.611133 140.920043,102.611133 140.920043,112.119517" id="Shape" fill="#CCCCCC" fill-rule="nonzero"></path>
                        <path d="M91.1929583,164.953777 L217.201023,164.953777 L217.201023,85.0462234 L91.1929583,85.0462234 L91.1929583,164.953777 Z M153.465529,161.880409 L116.58512,161.880409 L135.025325,143.440205 L153.465529,161.880409 Z M143.164831,147.245955 L161.605035,128.805751 L194.548461,161.881331 L157.668052,161.881331 L143.164831,147.245955 Z M94.2675551,88.1205129 L214.128885,88.1205129 L214.128885,161.881331 L198.269694,161.881331 L198.581825,161.5692 L161.701416,124.688791 L141.172244,145.217963 L135.181636,139.227355 L112.251549,161.881454 L94.2674321,161.881454 L94.2675551,88.1205129 Z" id="Shape" fill="#CCCCCC" fill-rule="nonzero"></path>
                        <polygon id="Shape" fill="#CCCCCC" fill-rule="nonzero" points="93.4979839 42.0190795 182.625639 42.0190795 182.625639 45.0924469 93.4979839 45.0924469"></polygon>
                        <polygon id="Shape" fill="#CCCCCC" fill-rule="nonzero" points="93.4979839 63.5326515 159.575384 63.5326515 159.575384 66.6060189 93.4979839 66.6060189"></polygon>
                        <polygon id="Shape" fill="#CCCCCC" fill-rule="nonzero" points="93.4979839 52.7758655 204.139211 52.7758655 204.139211 55.8492329 93.4979839 55.8492329"></polygon>
                        <path d="M0.528619197,0.528619197 L0.528619197,188.004032 L249.471381,188.004032 L249.471381,0.528619197 L0.528619197,0.528619197 Z M246.398013,3.60198662 L246.398013,23.5788749 L3.60198662,23.5788749 L3.60198662,3.60198662 L246.398013,3.60198662 Z M3.60198662,26.6522423 L60.459284,26.6522423 L60.459284,184.930665 L3.60198662,184.930665 L3.60198662,26.6522423 Z M63.5326515,184.930665 L63.5326515,26.6522423 L246.398013,26.6522423 L246.398013,184.930665 L63.5326515,184.930665 Z" id="Shape" fill="#CCCCCC" fill-rule="nonzero"></path>
                        <path d="M18.8735494,14.0821696 C18.8735494,19.2085464 11.1901308,19.2085464 11.1901308,14.0821696 C11.1901308,8.95579268 18.8735494,8.95579268 18.8735494,14.0821696" id="Shape" fill="#CCCCCC" fill-rule="nonzero"></path>
                        <path d="M32.7037028,14.0821696 C32.7037028,19.2085464 25.0202842,19.2085464 25.0202842,14.0821696 C25.0202842,8.95579268 32.7037028,8.95579268 32.7037028,14.0821696" id="Shape" fill="#CCCCCC" fill-rule="nonzero"></path>
                        <path d="M46.5338562,14.0821696 C46.5338562,19.2085464 38.8504376,19.2085464 38.8504376,14.0821696 C38.8504376,8.95579268 46.5338562,8.95579268 46.5338562,14.0821696" id="Shape" fill="#CCCCCC" fill-rule="nonzero"></path>
                        <polygon id="Shape" fill="#CCCCCC" fill-rule="nonzero" points="13.5904308 81.972856 41.2507376 81.972856 41.2507376 85.0462234 13.5904308 85.0462234"></polygon>
                        <polygon id="Shape" fill="#CCCCCC" fill-rule="nonzero" points="13.5904308 95.8030094 52.0075236 95.8030094 52.0075236 98.8763769 13.5904308 98.8763769"></polygon>
                        <polygon id="Shape" fill="#CCCCCC" fill-rule="nonzero" points="13.5904308 109.633163 44.324105 109.633163 44.324105 112.70653 13.5904308 112.70653"></polygon>
                        <polygon id="Shape" fill="#CCCCCC" fill-rule="nonzero" points="13.5904308 123.463316 36.6406865 123.463316 36.6406865 126.536684 13.5904308 126.536684"></polygon>
                        <polygon id="Shape" fill="#CCCCCC" fill-rule="nonzero" points="13.5904308 137.29347 44.324105 137.29347 44.324105 140.366837 13.5904308 140.366837"></polygon>
                        <path d="M24.3472168,66.2341414 C29.3174666,66.2341414 33.807349,63.2447999 35.7042314,58.6466119 C37.6130692,54.060533 36.5565991,48.7663503 33.0390379,45.248574 C29.5214767,41.7307976 24.239065,40.6864673 19.641,42.5833805 C15.0429349,44.4922182 12.0534704,48.9701453 12.0534704,53.9403951 C12.0534704,57.205848 13.3500627,60.32716 15.6551497,62.6321855 C17.9602368,64.9372111 21.0814873,66.2338648 24.3469402,66.2338648 L24.3472168,66.2341414 Z M24.3472168,44.7205694 C28.0807435,44.7205694 31.4423928,46.9655721 32.870894,50.4112166 C34.287532,53.8567688 33.5071732,57.8306329 30.8660135,60.4595914 C28.224823,63.1007819 24.2631909,63.8931575 20.8176387,62.4644719 C17.3720864,61.0358478 15.1269915,57.6743214 15.1269915,53.9407946 C15.1269915,48.8506835 19.2569827,44.7206924 24.3470938,44.7206924 L24.3472168,44.7205694 Z" id="Shape" fill="#CCCCCC" fill-rule="nonzero"></path>
                    </g>
                    <g id="np_wireframe-site_711396_000000" transform="translate(1127.000000, 160.000000)">
                        <rect id="Rectangle-4" fill="#FFFFFF" x="0" y="0" width="248" height="187"></rect>
                        <polygon id="Shape" fill="#CCCCCC" fill-rule="nonzero" points="57.6890244 63.0243902 188.786585 63.0243902 188.786585 66.0731707 57.6890244 66.0731707"></polygon>
                        <polygon id="Shape" fill="#CCCCCC" fill-rule="nonzero" points="75.9817073 73.695122 168.969512 73.695122 168.969512 76.7439024 75.9817073 76.7439024"></polygon>
                        <polygon id="Shape" fill="#CCCCCC" fill-rule="nonzero" points="83.6036585 52.3536585 159.823171 52.3536585 159.823171 55.402439 83.6036585 55.402439"></polygon>
                        <polygon id="Shape" fill="#CCCCCC" fill-rule="nonzero" points="45.4939024 133.146341 86.652439 133.146341 86.652439 136.195122 45.4939024 136.195122"></polygon>
                        <polygon id="Shape" fill="#CCCCCC" fill-rule="nonzero" points="53.1158537 142.292683 79.0304878 142.292683 79.0304878 145.341463 53.1158537 145.341463"></polygon>
                        <path d="M0.524390244,0.524390244 L0.524390244,186.5 L247.47561,186.5 L247.47561,0.524390244 L0.524390244,0.524390244 Z M244.426829,3.57317073 L244.426829,24.152439 L3.57317073,24.152439 L3.57317073,3.57317073 L244.426829,3.57317073 Z M3.57317073,183.45122 L3.57317073,27.2012195 L244.426829,27.2012195 L244.426829,183.45122 L3.57317073,183.45122 Z" id="Shape" fill="#CCCCCC" fill-rule="nonzero"></path>
                        <path d="M18.722561,13.9695122 C18.722561,19.054878 11.1006098,19.054878 11.1006098,13.9695122 C11.1006098,8.88414634 18.722561,8.88414634 18.722561,13.9695122" id="Shape" fill="#CCCCCC" fill-rule="nonzero"></path>
                        <path d="M32.4420732,13.9695122 C32.4420732,19.054878 24.820122,19.054878 24.820122,13.9695122 C24.820122,8.88414634 32.4420732,8.88414634 32.4420732,13.9695122" id="Shape" fill="#CCCCCC" fill-rule="nonzero"></path>
                        <path d="M46.1615854,13.9695122 C46.1615854,19.054878 38.5396341,19.054878 38.5396341,13.9695122 C38.5396341,8.88414634 46.1615854,8.88414634 46.1615854,13.9695122" id="Shape" fill="#CCCCCC" fill-rule="nonzero"></path>
                        <path d="M66.597561,123.631098 C71.5280488,123.631098 75.970122,120.665671 77.8637195,116.104268 C79.7453963,111.554878 78.697378,106.303049 75.2198476,102.813415 C71.7305183,99.3240854 66.4783841,98.2878049 61.9289939,100.169543 C57.3677134,102.06311 54.4021646,106.505213 54.4021646,111.435701 C54.4021646,114.67503 55.6764634,117.771372 57.9631402,120.057957 C60.2498171,122.344543 63.3579573,123.630823 66.5972866,123.630823 L66.597561,123.631098 Z M66.597561,102.289634 C70.2893293,102.289634 73.6240854,104.516677 75.0411585,107.934756 C76.4583537,111.352744 75.6723476,115.294817 73.0642073,117.902744 C70.4441463,120.522805 66.5142073,121.308841 63.0962195,119.891585 C59.6782317,118.47439 57.4510976,115.139756 57.4510976,111.436098 C57.4510976,106.386707 61.5358537,102.289756 66.597439,102.289756 L66.597561,102.289634 Z" id="Shape" fill="#CCCCCC" fill-rule="nonzero"></path>
                        <polygon id="Shape" fill="#CCCCCC" fill-rule="nonzero" points="101.896341 133.146341 143.054878 133.146341 143.054878 136.195122 101.896341 136.195122"></polygon>
                        <polygon id="Shape" fill="#CCCCCC" fill-rule="nonzero" points="109.518293 142.292683 135.432927 142.292683 135.432927 145.341463 109.518293 145.341463"></polygon>
                        <path d="M110.804878,111.435976 C110.804878,116.366463 113.770305,120.820427 118.331707,122.702134 C122.881098,124.595701 128.132927,123.547683 131.622561,120.058262 C135.1,116.568933 136.148171,111.328689 134.266433,106.767409 C132.372866,102.218018 127.930762,99.2405793 123.000274,99.2405793 C116.259726,99.2405793 110.805152,104.707043 110.805152,111.435701 L110.804878,111.435976 Z M132.146341,111.435976 C132.146341,115.139634 129.907378,118.47439 126.489329,119.891463 C123.07128,121.308537 119.141159,120.522652 116.521341,117.902622 C113.913201,115.294482 113.127134,111.352622 114.54439,107.934634 C115.961585,104.516646 119.29622,102.289512 122.999878,102.289512 C128.049268,102.289512 132.14622,106.386463 132.14622,111.435854 L132.146341,111.435976 Z" id="Shape" fill="#CCCCCC" fill-rule="nonzero"></path>
                        <polygon id="Shape" fill="#CCCCCC" fill-rule="nonzero" points="158.29878 133.146341 199.457317 133.146341 199.457317 136.195122 158.29878 136.195122"></polygon>
                        <polygon id="Shape" fill="#CCCCCC" fill-rule="nonzero" points="165.920732 142.292683 191.835366 142.292683 191.835366 145.341463 165.920732 145.341463"></polygon>
                        <path d="M179.402439,123.631098 C184.332927,123.631098 188.775,120.665671 190.668598,116.104268 C192.550274,111.554878 191.502256,106.303049 188.024726,102.813415 C184.535396,99.3240854 179.283262,98.2878049 174.733872,100.169543 C170.172591,102.06311 167.207043,106.505213 167.207043,111.435701 C167.207043,114.67503 168.481341,117.771372 170.768018,120.057957 C173.054695,122.344543 176.162835,123.630823 179.402165,123.630823 L179.402439,123.631098 Z M179.402439,102.289634 C183.094207,102.289634 186.428963,104.516677 187.846037,107.934756 C189.263232,111.352744 188.477226,115.294817 185.869085,117.902744 C183.249024,120.522805 179.319085,121.308841 175.901098,119.891585 C172.48311,118.47439 170.255976,115.139756 170.255976,111.436098 C170.255976,106.386707 174.340732,102.289756 179.402317,102.289756 L179.402439,102.289634 Z" id="Shape" fill="#CCCCCC" fill-rule="nonzero"></path>
                    </g>
                    <g id="np_wireframe-site_711403_000000" transform="translate(214.000000, 75.000000)">
                        <rect id="Rectangle-2" fill="#FFFFFF" x="0" y="0" width="361" height="272"></rect>
                        <polygon id="Shape" fill="#CCCCCC" fill-rule="nonzero" points="146.847458 207.476483 213.596302 207.476483 213.596302 234.175869 146.847458 234.175869"></polygon>
                        <path d="M102.348228,155.746421 L255.87057,155.746421 L255.87057,129.047035 L102.348228,129.047035 L102.348228,155.746421 Z M106.798151,133.496933 L251.420647,133.496933 L251.420647,151.296524 L106.798151,151.296524 L106.798151,133.496933 Z" id="Shape" fill="#CCCCCC" fill-rule="nonzero"></path>
                        <path d="M102.348228,194.126789 L255.87057,194.126789 L255.87057,167.427403 L102.348228,167.427403 L102.348228,194.126789 Z M106.798151,171.877301 L251.420647,171.877301 L251.420647,189.676892 L106.798151,189.676892 L106.798151,171.877301 Z" id="Shape" fill="#CCCCCC" fill-rule="nonzero"></path>
                        <polygon id="Shape" fill="#CCCCCC" fill-rule="nonzero" points="119.035439 80.0981595 241.40832 80.0981595 241.40832 84.5480573 119.035439 84.5480573"></polygon>
                        <polygon id="Shape" fill="#CCCCCC" fill-rule="nonzero" points="141.285054 95.6728016 216.933744 95.6728016 216.933744 100.122699 141.285054 100.122699"></polygon>
                        <path d="M0,0 L0,272 L361,272 L361,0 L0,0 Z M356.54321,4.45901639 L356.54321,34.557377 L4.45679012,34.557377 L4.45679012,4.45901639 L356.54321,4.45901639 Z M4.45679012,267.540984 L4.45679012,39.0163934 L356.54321,39.0163934 L356.54321,267.540984 L4.45679012,267.540984 Z" id="Shape" fill="#CCCCCC" fill-rule="nonzero"></path>
                        <path d="M26.6995378,19.4683027 C26.6995378,26.8847989 15.5747304,26.8847989 15.5747304,19.4683027 C15.5747304,12.0518064 26.6995378,12.0518064 26.6995378,19.4683027" id="Shape" fill="#CCCCCC" fill-rule="nonzero"></path>
                        <path d="M46.7241911,19.4683027 C46.7241911,26.8847989 35.5993837,26.8847989 35.5993837,19.4683027 C35.5993837,12.0518064 46.7241911,12.0518064 46.7241911,19.4683027" id="Shape" fill="#CCCCCC" fill-rule="nonzero"></path>
                        <path d="M66.7488444,19.4683027 C66.7488444,26.8847989 55.624037,26.8847989 55.624037,19.4683027 C55.624037,12.0518064 66.7488444,12.0518064 66.7488444,19.4683027" id="Shape" fill="#CCCCCC" fill-rule="nonzero"></path>
                    </g>
                    <g id="np_wireframe-site_711408_000000" transform="translate(869.000000, 77.000000)">
                        <rect id="Rectangle-2" fill="#FFFFFF" x="0" y="0" width="358" height="269"></rect>
                        <path d="M0.535562794,0.53633392 L0.535562794,269.721649 L357.464437,269.721649 L357.464437,0.53633392 L0.535562794,0.53633392 Z M353.057908,4.94920795 L353.057908,33.6328891 L4.94209211,33.6328891 L4.94209211,4.94920795 L353.057908,4.94920795 Z M4.94209211,115.271059 L60.0237085,115.271059 L60.0237085,221.180035 L4.94209211,221.180035 L4.94209211,115.271059 Z M4.94209211,265.308775 L4.94209211,225.592909 L64.4302378,225.592909 L64.4302378,110.858185 L4.94209211,110.858185 L4.94209211,38.0457631 L353.057908,38.0457631 L353.057908,110.858185 L293.569762,110.858185 L293.569762,225.592909 L353.057908,225.592909 L353.057908,265.308775 L4.94209211,265.308775 Z M353.057908,115.271059 L353.057908,221.180035 L297.976291,221.180035 L297.976291,115.271059 L353.057908,115.271059 Z" id="Shape" fill="#CCCCCC" fill-rule="nonzero"></path>
                        <path d="M26.8381363,19.9971084 C26.8381363,27.3577822 15.821813,27.3577822 15.821813,19.9971084 C15.821813,12.6364345 26.8381363,12.6364345 26.8381363,19.9971084" id="Shape" fill="#CCCCCC" fill-rule="nonzero"></path>
                        <path d="M46.6675182,19.9971084 C46.6675182,27.3577822 35.6511949,27.3577822 35.6511949,19.9971084 C35.6511949,12.6364345 46.6675182,12.6364345 46.6675182,19.9971084" id="Shape" fill="#CCCCCC" fill-rule="nonzero"></path>
                        <path d="M66.4969001,19.9971084 C66.4969001,27.3577822 55.4805768,27.3577822 55.4805768,19.9971084 C55.4805768,12.6364345 66.4969001,12.6364345 66.4969001,19.9971084" id="Shape" fill="#CCCCCC" fill-rule="nonzero"></path>
                        <path d="M157.760529,149.731192 C157.760529,163.383742 137.311589,163.383742 137.311589,149.731192 C137.311589,136.078642 157.760529,136.078642 157.760529,149.731192" id="Shape" fill="#CCCCCC" fill-rule="nonzero"></path>
                        <path d="M199.794412,241.21007 C199.794412,244.692093 194.596029,244.692093 194.596029,241.21007 C194.596029,237.745258 199.794412,237.745258 199.794412,241.21007" id="Shape" fill="#CCCCCC" fill-rule="nonzero"></path>
                        <path d="M186.574824,241.21007 C186.574824,244.692093 181.376441,244.692093 181.376441,241.21007 C181.376441,237.745258 186.574824,237.745258 186.574824,241.21007" id="Shape" fill="#CCCCCC" fill-rule="nonzero"></path>
                        <path d="M175.161913,241.21007 C175.161913,247.105229 166.348854,247.105229 166.348854,241.21007 C166.348854,235.332122 175.161913,235.332122 175.161913,241.21007" id="Shape" fill="#CCCCCC" fill-rule="nonzero"></path>
                        <path d="M160.135648,241.21007 C160.135648,244.692093 154.937265,244.692093 154.937265,241.21007 C154.937265,237.745258 160.135648,237.745258 160.135648,241.21007" id="Shape" fill="#CCCCCC" fill-rule="nonzero"></path>
                        <path d="M88.6661491,225.592909 L269.333851,225.592909 L269.333851,110.858185 L88.6661491,110.858185 L88.6661491,225.592909 Z M175.747981,221.180035 L122.86963,221.180035 L149.308805,194.702791 L175.747981,221.180035 Z M160.979058,200.167253 L187.418234,173.690009 L234.651821,221.181359 L181.77347,221.181359 L160.979058,200.167253 Z M93.074441,115.272382 L264.929084,115.272382 L264.929084,221.181359 L239.987247,221.181359 L240.434774,220.733188 L187.556422,167.778699 L157.898277,196.910728 L149.30907,188.309154 L116.655806,221.181536 L93.0738241,221.181536 L93.074441,115.272382 Z" id="Shape" fill="#CCCCCC" fill-rule="nonzero"></path>
                        <polygon id="Shape" fill="#CCCCCC" fill-rule="nonzero" points="118.410222 66.7294443 239.589778 66.7294443 239.589778 71.1423183 118.410222 71.1423183"></polygon>
                        <polygon id="Shape" fill="#CCCCCC" fill-rule="nonzero" points="140.442869 82.1745034 215.353867 82.1745034 215.353867 86.5873774 140.442869 86.5873774"></polygon>
                    </g>
                    <g id="np_wireframe-site_711410_000000" transform="translate(491.000000, 0.000000)">
                        <rect id="Rectangle" fill="#FFFFFF" x="0.555690073" y="1.11217949" width="458.44431" height="345.887821"></rect>
                        <path d="M96.6900726,251.352564 C96.6900726,260.991453 82.2421308,260.991453 82.2421308,251.352564 C82.2421308,241.713675 96.6900726,241.713675 96.6900726,251.352564" id="Shape" fill="#CCCCCC" fill-rule="nonzero"></path>
                        <path d="M53.346247,305.293269 L155.03753,305.293269 L155.03753,214.650641 L53.346247,214.650641 L53.346247,305.293269 Z M104.765879,299.628105 L74.5985953,299.628105 L89.6935364,284.491353 L104.765879,299.628105 Z M99.1163637,286.084963 L115.777915,269.377261 L145.8791,299.561823 L112.776328,299.561823 L99.1163637,286.084963 Z M58.9957627,220.318071 L149.388015,220.318071 L149.388015,294.939615 L115.932147,261.391079 L95.3204541,282.059864 L89.6709383,276.3947 L66.6316482,299.630938 L58.9957627,299.630938 L58.9957627,220.318071 Z" id="Shape" fill="#CCCCCC" fill-rule="nonzero"></path>
                        <path d="M220.608959,251.352564 C220.608959,260.991453 206.161017,260.991453 206.161017,251.352564 C206.161017,241.713675 220.608959,241.713675 220.608959,251.352564" id="Shape" fill="#CCCCCC" fill-rule="nonzero"></path>
                        <path d="M178.376513,305.293269 L280.067797,305.293269 L280.067797,214.650641 L178.376513,214.650641 L178.376513,305.293269 Z M229.796146,299.628105 L199.628862,299.628105 L214.723803,284.491353 L229.796146,299.628105 Z M224.14663,286.084963 L240.808182,269.377261 L270.909367,299.561823 L237.806594,299.561823 L224.14663,286.084963 Z M184.026029,220.318071 L274.418281,220.318071 L274.418281,294.939615 L240.962414,261.391079 L220.35072,282.059864 L214.701205,276.3947 L191.661915,299.630938 L184.026029,299.630938 L184.026029,220.318071 Z" id="Shape" fill="#CCCCCC" fill-rule="nonzero"></path>
                        <path d="M345.083535,251.352564 C345.083535,260.991453 330.635593,260.991453 330.635593,251.352564 C330.635593,241.713675 345.083535,241.713675 345.083535,251.352564" id="Shape" fill="#CCCCCC" fill-rule="nonzero"></path>
                        <path d="M303.40678,305.293269 L405.098063,305.293269 L405.098063,214.650641 L303.40678,214.650641 L303.40678,305.293269 Z M354.826412,299.628105 L324.659128,299.628105 L339.754069,284.491353 L354.826412,299.628105 Z M349.176896,286.084963 L365.838448,269.377261 L395.939633,299.561823 L362.83686,299.561823 L349.176896,286.084963 Z M309.056295,220.318071 L399.448547,220.318071 L399.448547,294.939615 L365.99268,261.391079 L345.380987,282.059864 L339.731471,276.3947 L316.692181,299.630938 L309.056295,299.630938 L309.056295,220.318071 Z" id="Shape" fill="#CCCCCC" fill-rule="nonzero"></path>
                        <polygon id="Shape" fill="#CCCCCC" fill-rule="nonzero" points="151.70339 90.6426282 307.29661 90.6426282 307.29661 96.2035256 151.70339 96.2035256"></polygon>
                        <polygon id="Shape" fill="#CCCCCC" fill-rule="nonzero" points="179.487893 110.661859 275.622276 110.661859 275.622276 116.222756 179.487893 116.222756"></polygon>
                        <path d="M0.555690073,0 L0.555690073,345.887821 L459,345.887821 L459,0 L0.555690073,0 Z M453.340194,5.67029214 L453.340194,42.527191 L6.21549637,42.527191 L6.21549637,5.67029214 L453.340194,5.67029214 Z M250.272004,161.603326 C248.680183,150.417541 239.128977,142.111697 227.854077,142.111697 C216.578611,142.111697 207.027688,150.417541 205.43615,161.603326 L6.21662833,161.603326 L6.21662833,48.1974832 L453.341326,48.1974832 L453.341326,161.603326 L250.272004,161.603326 Z M244.612197,163.751856 C244.612197,170.640127 240.477879,176.842293 234.1325,179.477845 C227.787291,182.113623 220.469162,180.651765 215.627763,175.778886 C210.763839,170.928121 209.304628,163.596831 211.935645,157.239866 C214.56655,150.882902 220.757019,146.740753 227.632552,146.740753 C232.164812,146.696457 236.542219,148.446264 239.770007,151.657974 C243.019981,154.847513 244.832873,159.210803 244.832873,163.751573 L244.612197,163.751856 Z M6.21549637,340.217018 L6.21549637,167.273108 L205.548214,167.273108 C207.515903,178.059705 216.8899,185.87847 227.833702,185.87847 C238.75543,185.87847 248.129201,178.059705 250.097116,167.273108 L453.34076,167.273108 L453.34076,340.217018 L6.21549637,340.217018 Z" id="Shape" fill="#CCCCCC" fill-rule="nonzero"></path>
                        <path d="M33.8970944,25.0240385 C33.8970944,34.6629274 19.4491525,34.6629274 19.4491525,25.0240385 C19.4491525,15.3851496 33.8970944,15.3851496 33.8970944,25.0240385" id="Shape" fill="#CCCCCC" fill-rule="nonzero"></path>
                        <path d="M59.4588378,25.0240385 C59.4588378,34.6629274 45.0108959,34.6629274 45.0108959,25.0240385 C45.0108959,15.3851496 59.4588378,15.3851496 59.4588378,25.0240385" id="Shape" fill="#CCCCCC" fill-rule="nonzero"></path>
                        <path d="M84.464891,25.0240385 C84.464891,34.6629274 70.0169492,34.6629274 70.0169492,25.0240385 C70.0169492,15.3851496 84.464891,15.3851496 84.464891,25.0240385" id="Shape" fill="#CCCCCC" fill-rule="nonzero"></path>
                    </g>
                    <path d="M1440,343.5 L0,343.5" id="Line" stroke="#CCCCCC" stroke-width="7" stroke-linecap="square"></path>
                </g>
            </g>
        </g>
    </g>
</svg>