<?xml version="1.0" encoding="UTF-8"?>
<svg viewBox="0 0 1440 346" version="1.1" xmlns="http://www.w3.org/2000/svg" xmlns:xlink="http://www.w3.org/1999/xlink">
    <defs>
        <rect id="path-1" x="0" y="0" width="1440" height="346"></rect>
        <polygon id="path-3" points="0 0 248 0 248 187 0 187"></polygon>
        <polygon id="path-5" points="0 0 248 0 248 187 0 187"></polygon>
        <polygon id="path-7" points="0 0 361 0 361 272 0 272"></polygon>
        <polygon id="path-9" points="0 0 358 0 358 269 0 269"></polygon>
        <polygon id="path-11" points="0.56 0.11 459 0.11 459 346 0.56 346"></polygon>
    </defs>

    <g id="hero-illustration">
        <mask id="mask-2" fill="white">
            <use xlink:href="#path-1"></use>
        </mask>
        <g id="Mask"></g>
        <g class="page" mask="url(#mask-2)">
            <g transform="translate(66.000000, 158.000000)">
                <mask id="mask-4" fill="white">
                    <use xlink:href="#path-3"></use>
                </mask>
                <g id="Mask" stroke="none" fill="none" fill-rule="nonzero"></g>
                <polygon class="background" stroke="none" fill="#FFFFFF" fill-rule="nonzero" mask="url(#mask-4)" points="0 0 248 0 248 187 0 187"></polygon>
                <path d="M90.193,163.954 L216.201,163.954 L216.201,84.046 L90.193,84.046 L90.193,163.954 Z M152.466,160.88 L115.586,160.88 L134.026,142.44 L152.466,160.88 Z M142.165,146.246 L160.605,127.806 L193.548,160.881 L156.668,160.881 L142.165,146.246 Z M93.268,87.121 L213.128,87.121 L213.128,160.881 L197.27,160.881 L197.582,160.569 L160.702,123.689 L140.172,144.218 L134.182,138.228 L111.252,160.881 L93.267,160.881 L93.267,87.121 L93.268,87.121 Z M92.498,41.02 L181.626,41.02 L181.626,44.092 L92.498,44.092 L92.498,41.02 Z M92.498,62.533 L158.575,62.533 L158.575,65.606 L92.498,65.606 L92.498,62.533 Z M92.498,51.776 L203.139,51.776 L203.139,54.849 L92.498,54.849 L92.498,51.776 Z" id="Shape" stroke="none" fill="#CCCCCC" fill-rule="nonzero" mask="url(#mask-4)"></path>
                <path d="M-0.471,-0.471 L-0.471,187.004 L248.47,187.004 L248.47,-0.471 L-0.47,-0.471 L-0.471,-0.471 Z M245.398,2.602 L245.398,22.579 L2.602,22.579 L2.602,2.602 L245.398,2.602 Z M2.602,25.652 L59.459,25.652 L59.459,183.931 L2.602,183.931 L2.602,25.652 L2.602,25.652 Z M62.532,183.931 L62.532,25.652 L245.398,25.652 L245.398,183.931 L62.533,183.931 L62.532,183.931 Z" class="frame" stroke="none" fill="#CCCCCC" fill-rule="nonzero" mask="url(#mask-4)"></path>
                <path d="M17.874,13.082 C17.874,18.209 10.19,18.209 10.19,13.082 C10.19,7.956 17.874,7.956 17.874,13.082 L17.874,13.082 Z M31.704,13.082 C31.704,18.209 24.02,18.209 24.02,13.082 C24.02,7.956 31.704,7.956 31.704,13.082 L31.704,13.082 Z M45.534,13.082 C45.534,18.209 37.85,18.209 37.85,13.082 C37.85,7.956 45.534,7.956 45.534,13.082 L45.534,13.082 Z M12.59,80.973 L40.25,80.973 L40.25,84.046 L12.59,84.046 L12.59,80.973 Z M12.59,94.803 L51.008,94.803 L51.008,97.876 L12.59,97.876 L12.59,94.803 Z M12.59,108.633 L43.324,108.633 L43.324,111.707 L12.59,111.707 L12.59,108.633 Z M12.59,122.463 L35.64,122.463 L35.64,125.537 L12.59,125.537 L12.59,122.463 Z M12.59,136.293 L43.324,136.293 L43.324,139.367 L12.59,139.367 L12.59,136.293 Z M23.347,65.234 C28.317,65.234 32.807,62.244 34.704,57.647 C36.609746,53.0532923 35.5576015,47.7637492 32.039,44.249 C28.1048127,40.3143931 22.0183453,39.512897 17.1996836,42.2948857 C12.3810219,45.0768744 10.031786,50.748609 11.47205,56.1230486 C12.912314,61.4974881 17.7829223,65.2344197 23.347,65.234 L23.347,65.234 Z M23.347,43.721 C27.0776149,43.7191743 30.4419357,45.9649492 31.871,49.411 C33.288,52.857 32.507,56.831 29.866,59.46 C27.2310828,62.1003091 23.2642066,62.8914735 19.818,61.464 C16.3718933,60.0353863 14.1257464,56.6714942 14.127,52.941 C14.127,47.851 18.257,43.721 23.347,43.721 L23.347,43.721 Z" id="Shape" stroke="none" fill="#CCCCCC" fill-rule="nonzero" mask="url(#mask-4)"></path>
                <path d="M139.92,111.12 C139.92,120.628 125.658,120.628 125.658,111.12 C125.658,101.611 139.92,101.611 139.92,111.12" id="Shape" stroke="none" fill="#CCCCCC" fill-rule="nonzero" mask="url(#mask-4)"></path>
            </g>
        </g>
        <g class="page" mask="url(#mask-2)">
            <g transform="translate(1127.000000, 159.000000)">
                <mask id="mask-6" fill="white">
                    <use xlink:href="#path-5"></use>
                </mask>
                <g id="Mask" stroke="none" fill="none" fill-rule="nonzero"></g>
                <polygon class="background" stroke="none" fill="#FFFFFF" fill-rule="nonzero" mask="url(#mask-6)" points="0 0 248 0 248 187 0 187"></polygon>
                <path d="M57.689,63.024 L188.787,63.024 L188.787,66.074 L57.689,66.074 L57.689,63.024 Z M75.982,73.695 L168.97,73.695 L168.97,76.744 L75.982,76.744 L75.982,73.695 Z M83.604,52.354 L159.824,52.354 L159.824,55.402 L83.604,55.402 L83.604,52.354 Z M45.494,133.146 L86.652,133.146 L86.652,136.196 L45.494,136.196 L45.494,133.146 Z M53.116,142.293 L79.03,142.293 L79.03,145.341 L53.116,145.341 L53.116,142.293 Z" id="Shape" stroke="none" fill="#CCCCCC" fill-rule="nonzero" mask="url(#mask-6)"></path>
                <path d="M0.524,0.524 L0.524,186.5 L247.476,186.5 L247.476,0.524 L0.524,0.524 Z M244.427,3.574 L244.427,24.152 L3.573,24.152 L3.573,3.573 L244.427,3.573 L244.427,3.574 Z M3.573,183.45 L3.573,27.2 L244.427,27.2 L244.427,183.45 L3.573,183.45 Z" class="frame" stroke="none" fill="#CCCCCC" fill-rule="nonzero" mask="url(#mask-6)"></path>
                <path d="M18.723,13.97 C18.723,19.055 11.101,19.055 11.101,13.97 C11.101,8.884 18.723,8.884 18.723,13.97 L18.723,13.97 Z M32.442,13.97 C32.442,19.055 24.82,19.055 24.82,13.97 C24.82,8.884 32.442,8.884 32.442,13.97 L32.442,13.97 Z M46.162,13.97 C46.162,19.055 38.54,19.055 38.54,13.97 C38.54,8.884 46.162,8.884 46.162,13.97 L46.162,13.97 Z M66.598,123.631 C71.528,123.631 75.97,120.666 77.864,116.104 C79.7416436,111.545988 78.6992218,106.306282 75.22,102.814 C71.7305753,99.3286564 66.4866611,98.2854761 61.929,100.17 C57.372741,102.057821 54.4020906,106.504128 54.402,111.436 C54.3964131,114.672025 55.6794456,117.777118 57.9676639,120.065336 C60.2558823,122.353554 63.3609754,123.636587 66.597,123.631 L66.598,123.631 Z M66.598,102.29 C70.2945797,102.292316 73.6262351,104.519865 75.041,107.935 C76.4564325,111.351931 75.6763835,115.284925 73.064,117.903 C70.4503629,120.522778 66.5149397,121.308047 63.096,119.892 C59.6773896,118.474332 57.4494103,115.136902 57.451,111.436 C57.4496726,109.009923 58.41284,106.682831 60.1283355,104.967336 C61.8438311,103.25184 64.1709233,102.288673 66.597,102.29 L66.598,102.29 Z M101.896,133.146 L143.055,133.146 L143.055,136.196 L101.896,136.196 L101.896,133.146 Z M109.518,142.293 L135.433,142.293 L135.433,145.341 L109.518,145.341 L109.518,142.293 Z M110.805,111.436 C110.805,116.366 113.77,120.82 118.332,122.702 C122.888802,124.591975 128.135556,123.548151 131.622,120.058 C135.102459,116.566378 136.145039,111.325876 134.266,106.768 C132.37457,102.214568 127.930642,99.2451117 123,99.24 C116.26,99.24 110.805,104.706 110.805,111.435 L110.805,111.436 Z M132.146,111.436 C132.142474,115.138636 129.910191,118.475026 126.489,119.891 C123.070258,121.3073 119.134863,120.522432 116.521,117.903 C113.907986,115.284307 113.128915,111.349816 114.546825,107.932957 C115.964735,104.516098 119.300623,102.28921 123,102.29 C128.05,102.29 132.146,106.386 132.146,111.436 L132.146,111.436 Z M158.299,133.146 L199.457,133.146 L199.457,136.196 L158.3,136.196 L158.299,133.146 Z M165.92,142.293 L191.835,142.293 L191.835,145.341 L165.921,145.341 L165.92,142.293 Z M179.402,123.631 C184.332,123.631 188.775,120.666 190.669,116.104 C192.546644,111.545988 191.504222,106.306282 188.025,102.814 C184.535575,99.3286564 179.291661,98.2854761 174.734,100.17 C170.177741,102.057821 167.207091,106.504128 167.207,111.436 C167.201413,114.672025 168.484446,117.777118 170.772664,120.065336 C173.060882,122.353554 176.165975,123.636587 179.402,123.631 L179.402,123.631 Z M179.402,102.29 C183.098944,102.291912 186.431096,104.519529 187.846,107.935 C189.261433,111.351931 188.481384,115.284925 185.869,117.903 C183.255363,120.522778 179.31994,121.308047 175.901,119.892 C172.48239,118.474332 170.25441,115.136902 170.256,111.436 C170.254673,109.009923 171.21784,106.682831 172.933336,104.967336 C174.648831,103.25184 176.975923,102.288673 179.402,102.29 L179.402,102.29 Z" id="Shape" stroke="none" fill="#CCCCCC" fill-rule="nonzero" mask="url(#mask-6)"></path>
            </g>
        </g>
        <g class="page" mask="url(#mask-2)">
            <g transform="translate(214.000000, 74.000000)">
                <mask id="mask-8" fill="white">
                    <use xlink:href="#path-7"></use>
                </mask>
                <g id="Mask" stroke="none" fill="none" fill-rule="nonzero"></g>
                <polygon class="background" stroke="none" fill="#FFFFFF" fill-rule="nonzero" mask="url(#mask-8)" points="0 0 361 0 361 272 0 272"></polygon>
                <path d="M146.847,207.476 L213.597,207.476 L213.597,234.176 L146.847,234.176 L146.847,207.476 Z M102.348,155.746 L255.871,155.746 L255.871,129.047 L102.348,129.047 L102.348,155.747 L102.348,155.746 Z M106.798,133.496 L251.421,133.496 L251.421,151.296 L106.798,151.296 L106.798,133.496 Z M102.348,194.127 L255.871,194.127 L255.871,167.427 L102.348,167.427 L102.348,194.127 Z M106.798,171.877 L251.421,171.877 L251.421,189.677 L106.798,189.677 L106.798,171.877 Z M119.035,80.098 L241.408,80.098 L241.408,84.548 L119.035,84.548 L119.035,80.098 Z M141.285,95.673 L216.934,95.673 L216.934,100.123 L141.285,100.123 L141.285,95.673 Z" id="Shape" stroke="none" fill="#CCCCCC" fill-rule="nonzero" mask="url(#mask-8)"></path>
                <path d="M0,0 L0,272 L361,272 L361,0 L0,0 Z M356.543,4.459 L356.543,34.557 L4.457,34.557 L4.457,4.46 L356.543,4.46 L356.543,4.459 Z M4.457,267.541 L4.457,39.016 L356.543,39.016 L356.543,267.541 L4.457,267.541 Z" class="frame" stroke="none" fill="#CCCCCC" fill-rule="nonzero" mask="url(#mask-8)"></path>
                <path d="M26.7,19.468 C26.7,26.885 15.575,26.885 15.575,19.468 C15.575,12.052 26.7,12.052 26.7,19.468 M46.724,19.468 C46.724,26.885 35.599,26.885 35.599,19.468 C35.599,12.052 46.724,12.052 46.724,19.468 M66.749,19.468 C66.749,26.885 55.624,26.885 55.624,19.468 C55.624,12.052 66.749,12.052 66.749,19.468" id="Shape" stroke="none" fill="#CCCCCC" fill-rule="nonzero" mask="url(#mask-8)"></path>
            </g>
        </g>
        <g class="page" mask="url(#mask-2)">
            <g transform="translate(869.000000, 76.000000)">
                <mask id="mask-10" fill="white">
                    <use xlink:href="#path-9"></use>
                </mask>
                <g id="Mask" stroke="none" fill="none" fill-rule="nonzero"></g>
                <polygon class="background" stroke="none" fill="#FFFFFF" fill-rule="nonzero" mask="url(#mask-10)" points="0 0 358 0 358 269 0 269"></polygon>
                <path d="M0.536,0.536 L0.536,269.722 L357.464,269.722 L357.464,0.536 L0.536,0.536 Z M353.058,4.949 L353.058,33.633 L4.942,33.633 L4.942,4.949 L353.058,4.949 Z M4.942,115.271 L60.024,115.271 L60.024,221.18 L4.942,221.18 L4.942,115.271 Z M4.942,265.309 L4.942,225.593 L64.43,225.593 L64.43,110.858 L4.942,110.858 L4.942,38.046 L353.058,38.046 L353.058,110.858 L293.57,110.858 L293.57,225.593 L353.058,225.593 L353.058,265.309 L4.942,265.309 L4.942,265.309 Z M353.058,115.271 L353.058,221.18 L297.976,221.18 L297.976,115.271 L353.058,115.271 L353.058,115.271 Z" class="frame" stroke="none" fill="#CCCCCC" fill-rule="nonzero" mask="url(#mask-10)"></path>
                <path d="M26.838,19.997 C26.838,27.357 15.822,27.357 15.822,19.997 C15.822,12.637 26.838,12.637 26.838,19.997 M46.668,19.997 C46.668,27.357 35.651,27.357 35.651,19.997 C35.651,12.637 46.668,12.637 46.668,19.997 M66.497,19.997 C66.497,27.357 55.481,27.357 55.481,19.997 C55.481,12.637 66.497,12.637 66.497,19.997 M157.76,149.731 C157.76,163.384 137.312,163.384 137.312,149.731 C137.312,136.079 157.761,136.079 157.761,149.731 M199.794,241.21 C199.794,244.692 194.596,244.692 194.596,241.21 C194.596,237.745 199.794,237.745 199.794,241.21 M186.575,241.21 C186.575,244.692 181.376,244.692 181.376,241.21 C181.376,237.745 186.575,237.745 186.575,241.21 M175.162,241.21 C175.162,247.105 166.349,247.105 166.349,241.21 C166.349,235.332 175.162,235.332 175.162,241.21 M160.136,241.21 C160.136,244.692 154.937,244.692 154.937,241.21 C154.937,237.745 160.136,237.745 160.136,241.21" id="Shape" stroke="none" fill="#CCCCCC" fill-rule="nonzero" mask="url(#mask-10)"></path>
                <path d="M88.666,225.593 L269.334,225.593 L269.334,110.858 L88.666,110.858 L88.666,225.593 Z M175.748,221.18 L122.87,221.18 L149.309,194.703 L175.748,221.18 Z M160.979,200.167 L187.419,173.69 L234.652,221.181 L181.773,221.181 L160.979,200.167 Z M93.074,115.272 L264.929,115.272 L264.929,221.182 L239.987,221.182 L240.435,220.733 L187.556,167.779 L157.898,196.911 L149.309,188.309 L116.656,221.182 L93.074,221.182 L93.074,115.272 L93.074,115.272 Z M118.41,66.73 L239.59,66.73 L239.59,71.142 L118.41,71.142 L118.41,66.73 Z M140.443,82.175 L215.353,82.175 L215.353,86.587 L140.443,86.587 L140.443,82.175 Z" id="Shape" stroke="none" fill="#CCCCCC" fill-rule="nonzero" mask="url(#mask-10)"></path>
            </g>
        </g>
        <g class="page" mask="url(#mask-2)">
            <g transform="translate(491.000000, 0.000000)">
                <mask id="mask-12" fill="white">
                    <use xlink:href="#path-11"></use>
                </mask>
                <g id="Mask" stroke="none" fill="none" fill-rule="nonzero"></g>
                <polygon class="background" stroke="none" fill="#FFFFFF" fill-rule="nonzero" mask="url(#mask-12)" points="0.56 0.11 459 0.11 459 346 0.56 346"></polygon>
                <path d="M96.69,250.353 C96.69,259.991 82.242,259.991 82.242,250.353 C82.242,240.713 96.69,240.713 96.69,250.353" id="Shape" stroke="none" fill="#CCCCCC" fill-rule="nonzero" mask="url(#mask-12)"></path>
                <path d="M53.346,304.293 L155.038,304.293 L155.038,213.651 L53.346,213.651 L53.346,304.293 Z M104.766,298.628 L74.599,298.628 L89.694,283.491 L104.766,298.628 Z M99.116,285.085 L115.778,268.377 L145.879,298.562 L112.776,298.562 L99.116,285.085 L99.116,285.085 Z M58.996,219.318 L149.388,219.318 L149.388,293.94 L115.932,260.391 L95.32,281.06 L89.67,275.395 L66.632,298.631 L58.996,298.631 L58.996,219.318 Z M220.609,250.353 C220.609,259.991 206.161,259.991 206.161,250.353 C206.161,240.713 220.609,240.713 220.609,250.353 L220.609,250.353 Z" id="Shape" stroke="none" fill="#CCCCCC" fill-rule="nonzero" mask="url(#mask-12)"></path>
                <path d="M178.377,304.293 L280.067,304.293 L280.067,213.651 L178.377,213.651 L178.377,304.293 Z M229.797,298.628 L199.629,298.628 L214.724,283.491 L229.796,298.628 L229.797,298.628 Z M224.147,285.085 L240.808,268.377 L270.909,298.562 L237.807,298.562 L224.147,285.085 L224.147,285.085 Z M184.026,219.318 L274.418,219.318 L274.418,293.94 L240.962,260.391 L220.351,281.06 L214.701,275.395 L191.661,298.631 L184.026,298.631 L184.026,219.318 Z M345.084,250.353 C345.084,259.991 330.636,259.991 330.636,250.353 C330.636,240.713 345.084,240.713 345.084,250.353 L345.084,250.353 Z" id="Shape" stroke="none" fill="#CCCCCC" fill-rule="nonzero" mask="url(#mask-12)"></path>
                <path d="M303.407,304.293 L405.098,304.293 L405.098,213.651 L303.407,213.651 L303.407,304.293 Z M354.827,298.628 L324.659,298.628 L339.754,283.491 L354.826,298.628 L354.827,298.628 Z M349.177,285.085 L365.838,268.377 L395.94,298.562 L362.837,298.562 L349.177,285.085 Z M309.057,219.318 L399.449,219.318 L399.449,293.94 L365.993,260.391 L345.381,281.06 L339.731,275.395 L316.692,298.631 L309.056,298.631 L309.056,219.318 L309.057,219.318 Z M151.703,89.643 L307.297,89.643 L307.297,95.203 L151.703,95.203 L151.703,89.643 Z M179.488,109.662 L275.622,109.662 L275.622,115.222 L179.488,115.222 L179.488,109.662 Z" id="Shape" stroke="none" fill="#CCCCCC" fill-rule="nonzero" mask="url(#mask-12)"></path>
                <path d="M0.556,-1 L0.556,344.888 L459,344.888 L459,-1 L0.556,-1 Z M453.34,4.67 L453.34,41.527 L6.215,41.527 L6.215,4.67 L453.34,4.67 Z M250.272,160.603 C248.68,149.418 239.129,141.112 227.854,141.112 C216.579,141.112 207.028,149.418 205.436,160.603 L6.216,160.603 L6.216,47.197 L453.341,47.197 L453.341,160.603 L250.272,160.603 Z M244.612,162.752 C244.612,169.64 240.478,175.842 234.132,178.478 C227.784585,181.113167 220.474031,179.651373 215.628,174.778 C210.764,169.928 209.305,162.597 211.936,156.24 C214.561002,149.885654 220.757802,145.740505 227.633,145.74 C232.17404,145.687751 236.54623,147.459394 239.77,150.658 C243.012651,153.846281 244.837157,158.204484 244.833,162.752 L244.613,162.752 L244.612,162.752 Z M6.215,339.217 L6.215,166.273 L205.548,166.273 C207.516,177.06 216.89,184.878 227.834,184.878 C238.755,184.878 248.129,177.06 250.097,166.273 L453.341,166.273 L453.341,339.217 L6.215,339.217 Z" class="frame" stroke="none" fill="#CCCCCC" fill-rule="nonzero" mask="url(#mask-12)"></path>
                <path d="M33.897,24.024 C33.897,33.663 19.449,33.663 19.449,24.024 C19.449,14.385 33.897,14.385 33.897,24.024 M59.459,24.024 C59.459,33.663 45.011,33.663 45.011,24.024 C45.011,14.385 59.459,14.385 59.459,24.024 M84.465,24.024 C84.465,33.663 70.017,33.663 70.017,24.024 C70.017,14.385 84.465,14.385 84.465,24.024" id="Shape" stroke="none" fill="#CCCCCC" fill-rule="nonzero" mask="url(#mask-12)"></path>
            </g>
        </g>
        <path d="M1440,342.5 L0,342.5" id="line" stroke="#CCCCCC" stroke-width="7" stroke-linecap="square"></path>
    </g>

    <style>

        #line {
            transform: scaleX(0);
            transform-origin: 50% 100%;
            animation: grow 1s forwards;
        }

        .page path {
            stroke-dasharray: 1000;
            stroke-dashoffset: 1000;
            fill: none;
            stroke: #ccc;
            stroke-width: 4;
            animation: draw 3s 2s forwards, fill 1s 3s forwards;
            stroke-linecap: round;
            stroke-linejoin: round;
        }

        .page .frame {
            fill: #ccc;
            stroke: none;
        }

        .page .background {
            fill: white;
            stroke: none;
        }

        .page .background,
        .page .frame {
            transform: scaleY(0);
            transform-origin: 50% 100%;
            animation: grow 1s 1s forwards;
        }

        @keyframes grow {
            100% {
                transform: scale(1);
            }
        }

        @keyframes draw {
            100% {
                stroke-dashoffset: 0;
            }
        }

        @keyframes fill {
            0% {
                fill: #fff;
            }

            100% {
                fill: #ccc;
                stroke-width: 0;
            }
        }

    </style>

</svg>