<?xml version="1.0" encoding="utf-8"?>
<!-- Generator: Adobe Illustrator 19.2.0, SVG Export Plug-In . SVG Version: 6.00 Build 0)  -->
<svg version="1.1" id="Layer_1" xmlns="http://www.w3.org/2000/svg" xmlns:xlink="http://www.w3.org/1999/xlink" x="0px" y="0px"
	 viewBox="0 0 211.605 42.703" style="enable-background:new 0 0 211.605 42.703;" xml:space="preserve">
<g>
	<path d="M28.371,42.7c-5.833-0.145-11.593-0.721-17.426-0.792c-2.664,0-5.328,0-7.993,0C0.936,41.908,0,40.899,0,38.667
		c0-4.249,3.888-3.096,4.393-6.048c0.216-1.08,0.144-2.376,0.144-3.528c0.144-2.736,0.216-5.401,0.216-8.137
		c0-1.584-0.216-10.225-0.576-11.161C3.744,8.641,2.736,7.921,1.8,7.273C0.648,6.48,0.288,5.329,0.288,4.104
		c0-2.16,1.728-3.24,3.744-3.24h7.849C17.209,0.864,22.538,0,27.938,0c5.833,0,12.529,4.464,12.529,10.801
		c0,4.465-1.44,6.769-5.184,9.145c4.32,2.088,7.488,5.184,7.488,10.225c0,7.344-6.769,12.673-13.753,12.529H28.371z M25.49,12.457
		c0-2.664-1.512-5.256-4.464-5.256c-0.72,0-1.296,0.36-1.44,1.08c-0.36,2.233-0.504,4.681-0.504,6.913c0,1.584,1.08,2.16,2.592,2.16
		C24.914,17.353,25.49,15.266,25.49,12.457z M26.21,29.522c0-3.96-1.512-6.12-5.761-6.12c-1.44,0-1.08,2.016-1.08,2.952
		c0,2.16,0.072,5.041,0.864,6.984c0.36,0.792,1.224,0.72,1.944,0.72C24.554,34.059,26.21,31.755,26.21,29.522z"/>
	<path d="M59.76,28.659c-0.648,0-0.864,0.432-0.864,1.008c0,2.736,3.24,4.393,5.617,4.393c4.608,0,7.201-3.096,8.425-3.096
		c2.232,0,3.528,1.944,3.528,4.032c0,0.144,0,0.504,0,0.648c-0.288,0.864-1.008,1.8-1.656,2.448
		c-2.952,3.025-8.065,4.609-12.241,4.609c-9.217,0-18.217-6.337-18.217-16.13c0-9.361,7.273-15.697,16.418-15.697
		c6.984,0,15.553,4.608,15.553,12.457c0,1.944,0.072,5.112-2.521,5.329c-1.656,0.216-3.456,0.216-5.184,0.216
		c-0.864,0-1.729,0-2.592,0c-2.016,0-4.032-0.072-6.049-0.216H59.76z M61.849,17.065c-2.448,0-3.168,2.232-3.168,4.32
		c0,1.512,2.88,1.368,3.888,1.368c0.72,0,2.665-0.072,2.665-1.152C65.233,19.514,64.225,17.065,61.849,17.065z"/>
	<path d="M81.431,21.026c0-2.592-3.097-1.008-3.097-3.456c0-1.728-0.36-4.896,1.44-5.761c2.16-1.152,3.888-2.448,5.832-3.961
		c1.944-1.512,5.041-5.04,7.633-5.04c1.367,0,2.664,1.152,2.664,2.592c0,1.656-0.217,3.313-0.217,4.969
		c0,0.648,0.504,1.368,1.225,1.368c1.224,0,2.448-0.144,3.6-0.144c1.944,0,1.801,2.52,1.801,3.816c0,1.441-0.216,4.537-2.305,4.537
		c-1.368,0-2.736-0.36-4.104-0.36c-0.576,0-1.009,0.36-1.009,0.936c0,1.872,0.072,3.744,0.143,5.544
		c0.072,1.872,0,3.744,0.217,5.616c0,0.72,0.216,2.088,1.152,2.088c1.224,0,2.304-0.576,3.528-0.576c1.727,0,2.592,1.729,2.592,3.24
		c0,4.825-7.704,6.265-11.377,6.265c-4.681,0-9.721-3.529-9.721-8.497V21.026z"/>
	<path d="M107.134,21.026c0-2.592-3.096-1.008-3.096-3.456c0-1.728-0.36-4.896,1.439-5.761c2.16-1.152,3.889-2.448,5.833-3.961
		c1.944-1.512,5.04-5.04,7.633-5.04c1.368,0,2.664,1.152,2.664,2.592c0,1.656-0.216,3.313-0.216,4.969
		c0,0.648,0.504,1.368,1.224,1.368c1.225,0,2.448-0.144,3.601-0.144c1.944,0,1.8,2.52,1.8,3.816c0,1.441-0.216,4.537-2.304,4.537
		c-1.368,0-2.736-0.36-4.104-0.36c-0.576,0-1.008,0.36-1.008,0.936c0,1.872,0.071,3.744,0.144,5.544
		c0.072,1.872,0,3.744,0.216,5.616c0,0.72,0.217,2.088,1.152,2.088c1.225,0,2.305-0.576,3.528-0.576c1.729,0,2.593,1.729,2.593,3.24
		c0,4.825-7.705,6.265-11.378,6.265c-4.68,0-9.721-3.529-9.721-8.497V21.026z"/>
	<path d="M144.719,28.659c-0.647,0-0.863,0.432-0.863,1.008c0,2.736,3.24,4.393,5.616,4.393c4.608,0,7.2-3.096,8.425-3.096
		c2.232,0,3.528,1.944,3.528,4.032c0,0.144,0,0.504,0,0.648c-0.288,0.864-1.008,1.8-1.656,2.448
		c-2.952,3.025-8.064,4.609-12.241,4.609c-9.217,0-18.218-6.337-18.218-16.13c0-9.361,7.273-15.697,16.418-15.697
		c6.984,0,15.553,4.608,15.553,12.457c0,1.944,0.072,5.112-2.52,5.329c-1.656,0.216-3.457,0.216-5.185,0.216
		c-0.864,0-1.729,0-2.593,0c-2.016,0-4.032-0.072-6.048-0.216H144.719z M146.808,17.065c-2.448,0-3.169,2.232-3.169,4.32
		c0,1.512,2.881,1.368,3.889,1.368c0.72,0,2.664-0.072,2.664-1.152C150.191,19.514,149.184,17.065,146.808,17.065z"/>
	<path d="M180.574,31.755c-0.144,3.384,5.4,1.368,5.4,5.616c0,3.745-2.088,4.537-5.473,4.537c-2.592,0-5.04-0.216-7.704-0.216
		c-1.801,0-3.312,0.144-5.112,0.144c-2.736,0-4.465-1.152-4.465-3.889c0-3.744,3.24-2.52,3.385-5.328
		c0.071-1.224,0.071-2.521,0.071-3.745c0-1.224,0-2.448,0-3.744c0-1.728,0-3.745-0.504-5.4c-0.504-1.944-2.736-0.36-2.736-4.033
		c0-1.872,0.433-4.104,2.809-4.104h2.088c3.168,0.072,6.265-0.792,9.433-0.792c3.528,0,1.729,4.465,2.881,4.465
		c0.576,0,1.008-0.36,1.368-0.792c1.728-1.872,4.824-3.672,7.416-3.672c4.105,0,4.969,5.761,4.969,8.137
		c0,3.313,0,8.281-4.393,8.281c-4.824,0-4.968-4.248-7.2-4.248c-1.368,0-1.944,1.872-2.017,3.024L180.574,31.755z"/>
	<path d="M203.9,42.703c-3.96,0-7.704-2.881-7.704-7.057c0-4.104,3.744-7.057,7.704-7.057c3.961,0,7.705,2.953,7.705,7.057
		C211.605,39.822,207.861,42.703,203.9,42.703z"/>
</g>
</svg>
