<?xml version="1.0" encoding="UTF-8"?>
<svg width="55px" height="48px" viewBox="0 0 55 48" version="1.1" xmlns="http://www.w3.org/2000/svg" xmlns:xlink="http://www.w3.org/1999/xlink">
    <path d="M8.055,1.023 C9.4222,-0.3403 11.637,-0.3403 13.0042,1.023 C14.3714,2.3902 14.3714,4.6089 13.0042,5.9761 C5.0003,13.98 5.0003,26.9601 13.0042,34.9641 C21.012,42.9719 33.9882,42.9719 41.9962,34.9641 C50.0001,26.9602 50.0001,13.9801 41.9962,5.9761 C40.629,4.6089 40.629,2.3902 41.9962,1.023 C43.3634,-0.3403 45.5782,-0.3403 46.9454,1.023 C57.6834,11.765 57.6834,29.175 46.9454,39.914 C36.2074,50.656 18.7934,50.656 8.0544,39.914 C-2.6836,29.176 -2.6836,11.766 8.0544,1.023 L8.055,1.023 Z M25.457,29.824 L15.43,19.59 C12.6097,16.7619 16.8402,12.5197 19.6605,15.3478 L23.0941,18.8009 C23.87535,19.58996 24.5082,19.32824 24.5082,18.21887 L24.5082,4.46487 C24.5082,2.82037 25.848,1.46877 27.5004,1.46877 C29.1488,1.46877 30.4926,2.80857 30.4926,4.46487 L30.4926,18.21887 C30.4926,19.32047 31.12541,19.58997 31.9067,18.8009 L35.3403,15.3478 C38.1606,12.5197 42.3911,16.7619 39.5708,19.59 L29.6489,29.813 C28.4887,31.0083 26.6137,31.0083 25.4575,29.824719 L25.457,29.824 Z" id="Shape"></path>
</svg>